# This file uses centimeters as units for non-parametric coordinates.

g default
v -5.000000 -0.500000 5.000000
v 5.000000 -0.500000 5.000000
v -5.000000 0.500000 5.000000
v 5.000000 0.500000 5.000000
v -5.000000 0.500000 -5.000000
v 5.000000 0.500000 -5.000000
v -5.000000 -0.500000 -5.000000
v 5.000000 -0.500000 -5.000000
v 3.000000 0.500000 5.000000
v 3.000000 0.500000 -5.000000
v 3.000000 -0.500000 -5.000000
v 3.000000 -0.500000 5.000000
v 0.000000 0.500000 5.000000
v 0.000000 0.500000 -5.000000
v 0.000000 -0.500000 -5.000000
v 0.000000 -0.500000 5.000000
v -3.000000 0.500000 5.000000
v -3.000000 0.500000 -5.000000
v -3.000000 -0.500000 -5.000000
v -3.000000 -0.500000 5.000000
v 3.000000 0.650000 -5.000000
v 5.000000 0.650000 -5.000000
v 5.000000 0.500000 3.000000
v 5.000000 -0.500000 3.000000
v 3.000000 -0.500000 3.000000
v 0.000000 -0.500000 3.000000
v -3.000000 -0.500000 3.000000
v -5.000000 -0.500000 3.000000
v -5.000000 0.500000 3.000000
v 0.000000 0.500000 3.000000
v 5.000000 0.650000 -3.000000
v 5.000000 0.500000 -3.000000
v 5.000000 -0.500000 -3.000000
v 3.000000 -0.500000 -3.000000
v 0.000000 -0.500000 -3.000000
v -3.000000 -0.500000 -3.000000
v -5.000000 -0.500000 -3.000000
v -5.000000 0.500000 -3.000000
v -3.000000 0.500000 -3.000000
v 0.000000 0.500000 -3.000000
v 0.000000 0.500000 0.000000
v 3.000000 0.500000 0.000000
v 5.000000 0.500000 0.000000
v 5.000000 -0.500000 0.000000
v 3.000000 -0.500000 0.000000
v 0.000000 -0.500000 0.000000
v -3.000000 -0.500000 0.000000
v -5.000000 -0.500000 0.000000
v -5.000000 0.500000 0.000000
v -3.000000 0.500000 0.000000
v 3.999900 0.500000 3.000000
v 3.000000 0.500000 3.000000
v 3.076113 0.650000 -3.617255
v 3.292864 0.650000 -3.292864
v 3.617255 0.650000 -3.076113
v 3.999900 0.650000 -3.000000
v 3.000000 0.650000 -3.999900
v 3.999900 0.500000 -3.000000
v 3.617255 0.500000 -3.076113
v 3.292864 0.500000 -3.292864
v 3.076113 0.500000 -3.617255
v 3.000000 0.500000 -3.999900
v 3.000000 0.500000 -3.000000
v 3.999900 0.500000 0.000000
v 5.000000 0.650000 -4.000000
v 5.000000 0.500000 -4.000000
v 5.000000 -0.500000 -4.000000
v 3.000000 -0.500000 -4.000000
v 0.000000 -0.500000 -4.000000
v -3.000000 -0.500000 -4.000000
v -5.000000 -0.500000 -4.000000
v -5.000000 0.500000 -4.000000
v -3.000000 0.500000 -4.000000
v 0.000000 0.500000 -4.000000
v 4.000000 0.650000 -5.000000
v 4.000000 0.500000 -5.000000
v 4.000000 -0.500000 -5.000000
v 4.000000 -0.500000 -4.000000
v 4.000000 -0.500000 -3.000000
v 4.000000 -0.500000 0.000000
v 4.000000 -0.500000 3.000000
v 4.000000 -0.500000 5.000000
v 4.000000 0.500000 5.000000
v 0.000000 0.650000 3.000000
v -3.000000 0.650000 3.000000
v -3.000000 0.650000 5.000000
v 0.000000 0.650000 5.000000
v 3.000000 0.650000 5.000000
v 3.000000 0.650000 3.000000
v 4.000000 0.650000 5.000000
v 3.999900 0.650000 3.000000
v 5.000000 0.650000 5.000000
v 5.000000 0.650000 3.000000
v -5.000000 0.650000 -4.000000
v -5.000000 0.650000 -5.000000
v -3.000000 0.650000 -4.000000
v -3.000000 0.650000 -5.000000
v -5.000000 0.650000 -3.000000
v -3.000000 0.650000 -3.000000
v -5.000000 0.650000 0.000000
v -3.000000 0.650000 0.000000
v -5.000000 0.650000 3.000000
v -5.000000 0.650000 5.000000
v -2.771639 0.468327 1.148049
v -2.121321 0.466343 2.121320
v -1.148051 0.468327 2.771638
v -1.148051 0.618327 2.771638
v -2.121321 0.616343 2.121320
v -2.771639 0.618327 1.148049
v -1.666711 0.617335 2.494409
v -1.666711 0.467335 2.494409
v -2.494408 0.617335 1.666709
v -2.494408 0.467335 1.666709
v -2.942354 0.484163 0.585270
v -2.942354 0.634163 0.585270
v -0.585271 0.484163 2.942355
v -0.585271 0.634163 2.942355
vt 0.965887 0.327729
vt 0.999197 0.327030
vt 0.999895 0.360341
vt 0.966580 0.361041
vt 1.000000 0.365338
vt 0.966685 0.366038
vt 0.932583 0.328417
vt 0.933260 0.361733
vt 0.933364 0.366730
vt 0.833300 0.363725
vt 0.832659 0.330410
vt 0.733318 0.365556
vt 0.732753 0.332238
vt 0.666629 0.366552
vt 0.666194 0.333251
vt 0.733393 0.370553
vt 0.666693 0.371550
vt 0.327918 0.744682
vt 0.033318 0.338696
vt 0.033516 0.372015
vt 0.000195 0.372209
vt 0.066632 0.338495
vt 0.066840 0.371815
vt 0.033546 0.377013
vt 0.000224 0.377207
vt 0.166580 0.337850
vt 0.166807 0.371169
vt 0.066871 0.376812
vt 0.266521 0.337125
vt 0.266778 0.370447
vt 0.166841 0.376167
vt 0.333442 0.369837
vt 0.333125 0.336586
vt 0.266818 0.375445
vt 0.333491 0.374823
vt 0.590826 0.717447
vt 0.592583 0.683871
vt 0.597493 0.684511
vt 0.595818 0.717721
vt 0.600643 0.672020
vt 0.596219 0.669911
vt 0.608274 0.661653
vt 0.604924 0.658054
vt 0.619267 0.654958
vt 0.617470 0.650370
vt 0.401989 0.675324
vt 0.400945 0.708739
vt 0.395949 0.708582
vt 0.396993 0.675172
vt 0.402918 0.641848
vt 0.397923 0.641733
vt 0.404901 0.541609
vt 0.399915 0.541443
vt 0.402042 0.521875
vt 0.406946 0.522768
vt 0.407894 0.503043
vt 0.412519 0.504909
vt 0.421416 0.488398
vt 0.417264 0.485635
vt 0.433412 0.473880
vt 0.429834 0.470317
vt 0.447857 0.461820
vt 0.445076 0.457680
vt 0.329818 0.037002
vt 0.329439 0.003686
vt 0.396081 0.002935
vt 0.396456 0.036253
vt 0.496406 0.035164
vt 0.496036 0.001846
vt 0.330194 0.070315
vt 0.396832 0.069568
vt 0.496777 0.068484
vt 0.596354 0.034070
vt 0.595980 0.000751
vt 0.397948 0.169507
vt 0.331313 0.170233
vt 0.497884 0.168445
vt 0.596726 0.067390
vt 0.629671 0.033698
vt 0.629293 0.000379
vt 0.399037 0.269436
vt 0.332410 0.270097
vt 0.597826 0.167359
vt 0.498964 0.268422
vt 0.630044 0.067020
vt 0.662988 0.033321
vt 0.662609 0.000000
vt 0.399722 0.336069
vt 0.631143 0.166994
vt 0.598892 0.267339
vt 0.499648 0.335097
vt 0.663362 0.066647
vt 0.664461 0.166629
vt 0.632207 0.266975
vt 0.599592 0.333995
vt 0.665523 0.266615
vt 0.632899 0.333621
vt 0.199917 0.233233
vt 0.099958 0.233236
vt 0.099958 0.199917
vt 0.199917 0.199917
vt 0.199917 0.266556
vt 0.099958 0.266556
vt 0.000000 0.233236
vt 0.000000 0.199917
vt 0.099958 0.099959
vt 0.199917 0.099959
vt 0.202453 0.220484
vt 0.000000 0.266556
vt 0.000000 0.099959
vt 0.099958 0.000000
vt 0.199917 0.000000
vt 0.233233 0.199917
vt 0.233233 0.099959
vt 0.209675 0.209675
vt 0.001921 0.080458
vt 0.080458 0.001921
vt 0.233233 0.000000
vt 0.220484 0.202453
vt 0.266556 0.099959
vt 0.266556 0.199917
vt 0.007609 0.061706
vt 0.061706 0.007609
vt 0.266556 0.000000
vt 0.016846 0.044425
vt 0.044425 0.016846
vt 0.029277 0.029277
vt 0.662474 0.720848
vt 0.631980 0.652913
vt 0.665184 0.654082
vt 0.663878 0.687524
vt 0.629168 0.719309
vt 0.333815 0.441090
vt 0.400068 0.374409
vt 0.400577 0.441118
vt 0.500036 0.373443
vt 0.500708 0.440152
vt 0.333372 0.540559
vt 0.600014 0.372319
vt 0.600766 0.438948
vt 0.481184 0.442338
vt 0.331266 0.640100
vt 0.633349 0.371938
vt 0.634091 0.438569
vt 0.462413 0.448249
vt 0.330345 0.673254
vt 0.667417 0.438195
vt 0.329273 0.706435
vt 0.400026 0.369407
vt 0.499985 0.368441
vt 0.599959 0.367321
vt 0.633290 0.366941
vt 0.395780 0.713593
vt 0.394433 0.746889
vt 0.494202 0.751299
vt 0.495738 0.718008
vt 0.594038 0.755999
vt 0.595604 0.722715
vt 0.627349 0.757577
vt 0.628928 0.724298
vt 0.660645 0.759140
vt 0.662232 0.725845
vt 0.631747 0.647905
vt 0.665346 0.649056
vt 0.600825 0.443945
vt 0.500841 0.445137
vt 0.482092 0.447239
vt 0.634149 0.443566
vt 0.464296 0.452866
vt 0.667474 0.443193
vt 0.329106 0.711414
vt 0.000000 0.338889
vn 0.000000 0.000000 1.000000
vn 0.000000 0.000000 1.000000
vn 0.000000 0.000000 1.000000
vn 0.000000 0.000000 1.000000
vn 0.000000 0.000000 -1.000000
vn 0.000000 0.000000 -1.000000
vn 0.000000 0.000000 -1.000000
vn 0.000000 0.000000 -1.000000
vn 0.000000 -1.000000 0.000000
vn 0.000000 -1.000000 0.000000
vn 0.000000 -1.000000 0.000000
vn 0.000000 -1.000000 0.000000
vn 1.000000 0.000000 0.000000
vn 1.000000 0.000000 0.000000
vn 1.000000 0.000000 0.000000
vn 1.000000 0.000000 0.000000
vn -1.000000 0.000000 0.000000
vn -1.000000 0.000000 0.000000
vn -1.000000 0.000000 0.000000
vn -1.000000 0.000000 0.000000
vn 0.000000 0.000000 -1.000000
vn 0.000000 0.000000 -1.000000
vn 0.000000 0.000000 -1.000000
vn 0.000000 0.000000 -1.000000
vn 0.000000 -1.000000 0.000000
vn 0.000000 -1.000000 0.000000
vn 0.000000 -1.000000 0.000000
vn 0.000000 -1.000000 0.000000
vn 0.000000 0.000000 1.000000
vn 0.000000 0.000000 1.000000
vn 0.000000 0.000000 1.000000
vn 0.000000 0.000000 1.000000
vn 0.000000 1.000000 0.000000
vn 0.000000 1.000000 0.000000
vn 0.000000 1.000000 0.000000
vn 0.000000 1.000000 0.000000
vn 0.000000 0.000000 -1.000000
vn 0.000000 0.000000 -1.000000
vn 0.000000 0.000000 -1.000000
vn 0.000000 0.000000 -1.000000
vn 0.000000 -1.000000 0.000000
vn 0.000000 -1.000000 0.000000
vn 0.000000 -1.000000 0.000000
vn 0.000000 -1.000000 0.000000
vn 0.000000 0.000000 1.000000
vn 0.000000 0.000000 1.000000
vn 0.000000 0.000000 1.000000
vn 0.000000 1.000000 0.000000
vn 0.000000 1.000000 0.000000
vn 0.000000 1.000000 0.000000
vn 0.000000 1.000000 0.000000
vn 0.000000 0.000000 -1.000000
vn 0.000000 0.000000 -1.000000
vn 0.000000 0.000000 -1.000000
vn 0.000000 0.000000 -1.000000
vn 0.000000 -1.000000 0.000000
vn 0.000000 -1.000000 0.000000
vn 0.000000 -1.000000 0.000000
vn 0.000000 -1.000000 0.000000
vn 0.000000 0.000000 1.000000
vn 0.000000 0.000000 1.000000
vn 0.000000 0.000000 -1.000000
vn 0.000000 0.000000 -1.000000
vn 0.000000 0.000000 -1.000000
vn 0.000000 0.000000 -1.000000
vn -1.000000 0.000000 0.000000
vn -0.998488 0.000000 0.054962
vn -0.998488 0.000000 0.054962
vn -1.000000 0.000000 0.000000
vn 1.000000 0.000000 0.000000
vn 1.000000 0.000000 0.000000
vn 1.000000 0.000000 0.000000
vn 1.000000 0.000000 0.000000
vn 1.000000 0.000000 0.000000
vn 1.000000 0.000000 0.000000
vn 1.000000 0.000000 0.000000
vn 1.000000 0.000000 0.000000
vn 0.000000 -1.000000 0.000000
vn 0.000000 -1.000000 0.000000
vn 0.000000 -1.000000 0.000000
vn 0.000000 -1.000000 0.000000
vn 0.000000 -1.000000 0.000000
vn 0.000000 -1.000000 0.000000
vn 0.000000 -1.000000 0.000000
vn 0.000000 -1.000000 0.000000
vn 0.000000 -1.000000 0.000000
vn 0.000000 -1.000000 0.000000
vn 0.000000 -1.000000 0.000000
vn 0.000000 -1.000000 0.000000
vn 0.000000 -1.000000 0.000000
vn 0.000000 -1.000000 0.000000
vn 0.000000 -1.000000 0.000000
vn 0.000000 -1.000000 0.000000
vn -1.000000 0.000000 0.000000
vn -1.000000 0.000000 0.000000
vn -1.000000 0.000000 0.000000
vn -1.000000 0.000000 0.000000
vn 1.000000 0.000000 0.000000
vn 1.000000 0.000000 0.000000
vn 1.000000 0.000000 0.000000
vn 1.000000 0.000000 0.000000
vn 0.000000 -1.000000 0.000000
vn 0.000000 -1.000000 0.000000
vn 0.000000 -1.000000 0.000000
vn 0.000000 -1.000000 0.000000
vn 0.000000 -1.000000 0.000000
vn 0.000000 -1.000000 0.000000
vn 0.000000 -1.000000 0.000000
vn 0.000000 -1.000000 0.000000
vn 0.000000 -1.000000 0.000000
vn 0.000000 -1.000000 0.000000
vn 0.000000 -1.000000 0.000000
vn 0.000000 -1.000000 0.000000
vn 0.000000 -1.000000 0.000000
vn 0.000000 -1.000000 0.000000
vn 0.000000 -1.000000 0.000000
vn 0.000000 -1.000000 0.000000
vn -1.000000 0.000000 0.000000
vn -1.000000 0.000000 0.000000
vn -1.000000 0.000000 0.000000
vn -1.000000 0.000000 0.000000
vn 1.000000 0.000000 0.000000
vn 1.000000 0.000000 0.000000
vn 1.000000 0.000000 0.000000
vn 1.000000 0.000000 0.000000
vn 0.000000 -1.000000 0.000000
vn 0.000000 -1.000000 0.000000
vn 0.000000 -1.000000 0.000000
vn 0.000000 -1.000000 0.000000
vn 0.000000 -1.000000 0.000000
vn 0.000000 -1.000000 0.000000
vn 0.000000 -1.000000 0.000000
vn 0.000000 -1.000000 0.000000
vn 0.000000 -1.000000 0.000000
vn 0.000000 -1.000000 0.000000
vn 0.000000 -1.000000 0.000000
vn 0.000000 -1.000000 0.000000
vn 0.000000 -1.000000 0.000000
vn 0.000000 -1.000000 0.000000
vn 0.000000 -1.000000 0.000000
vn 0.000000 -1.000000 0.000000
vn -1.000000 0.000000 0.000000
vn -1.000000 0.000000 0.000000
vn 0.000000 1.000000 0.000000
vn 0.000000 1.000000 0.000000
vn 0.000000 1.000000 0.000000
vn 0.000000 1.000000 0.000000
vn 0.000000 0.000000 1.000000
vn -0.054962 0.000000 0.998488
vn -0.054962 0.000000 0.998488
vn 0.000000 0.000000 1.000000
vn 0.000000 1.000000 0.000000
vn 0.000000 1.000000 0.000000
vn 0.000000 1.000000 0.000000
vn 0.000000 1.000000 0.000000
vn 0.000000 1.000000 0.000000
vn 0.000000 1.000000 0.000000
vn 0.000000 1.000000 0.000000
vn 0.000000 1.000000 0.000000
vn -0.382684 0.000000 0.923880
vn -0.382684 0.000000 0.923880
vn -0.707107 0.000000 0.707107
vn -0.707107 0.000000 0.707107
vn -0.923880 0.000000 0.382684
vn -0.923880 0.000000 0.382684
vn 0.000000 1.000000 0.000000
vn 0.000000 1.000000 0.000000
vn 0.000000 1.000000 0.000000
vn 0.000000 1.000000 0.000000
vn 0.000000 1.000000 0.000000
vn 0.000000 1.000000 0.000000
vn 0.000000 1.000000 0.000000
vn 0.000000 1.000000 0.000000
vn 0.000000 1.000000 0.000000
vn 0.000000 1.000000 0.000000
vn 0.000000 1.000000 0.000000
vn 0.000000 1.000000 0.000000
vn 0.000000 1.000000 0.000000
vn 0.000000 1.000000 0.000000
vn 0.000000 1.000000 0.000000
vn 0.000000 1.000000 0.000000
vn 0.000000 1.000000 0.000000
vn 0.000000 1.000000 0.000000
vn 0.000000 1.000000 0.000000
vn 0.000000 1.000000 0.000000
vn 0.000000 1.000000 0.000000
vn 0.000000 1.000000 0.000000
vn 0.000000 1.000000 0.000000
vn 0.000000 1.000000 0.000000
vn 0.000000 1.000000 0.000000
vn 0.000000 1.000000 0.000000
vn 0.000000 1.000000 -0.000000
vn 0.000000 1.000000 -0.000000
vn 0.000000 1.000000 -0.000000
vn 0.000000 1.000000 0.000000
vn 0.000000 1.000000 0.000000
vn 0.000000 1.000000 0.000000
vn 0.000000 1.000000 0.000000
vn 0.000000 1.000000 0.000000
vn 0.000000 1.000000 0.000000
vn 0.000000 1.000000 0.000000
vn 0.000000 1.000000 0.000000
vn 0.000000 1.000000 0.000000
vn 0.000000 1.000000 0.000000
vn 0.000000 1.000000 0.000000
vn 1.000000 0.000000 0.000000
vn 1.000000 0.000000 0.000000
vn 1.000000 0.000000 0.000000
vn 1.000000 0.000000 0.000000
vn 1.000000 0.000000 0.000000
vn 1.000000 0.000000 0.000000
vn 1.000000 0.000000 0.000000
vn 1.000000 0.000000 0.000000
vn 0.000000 -1.000000 0.000000
vn 0.000000 -1.000000 0.000000
vn 0.000000 -1.000000 0.000000
vn 0.000000 -1.000000 0.000000
vn 0.000000 -1.000000 0.000000
vn 0.000000 -1.000000 0.000000
vn 0.000000 -1.000000 0.000000
vn 0.000000 -1.000000 0.000000
vn 0.000000 -1.000000 0.000000
vn 0.000000 -1.000000 0.000000
vn 0.000000 -1.000000 0.000000
vn 0.000000 -1.000000 0.000000
vn 0.000000 -1.000000 0.000000
vn 0.000000 -1.000000 0.000000
vn 0.000000 -1.000000 0.000000
vn 0.000000 -1.000000 0.000000
vn -1.000000 0.000000 0.000000
vn -1.000000 0.000000 0.000000
vn 0.000000 1.000000 0.000000
vn 0.000000 1.000000 0.000000
vn 0.000000 1.000000 0.000000
vn 0.000000 1.000000 0.000000
vn 0.000000 1.000000 0.000000
vn 0.000000 1.000000 0.000000
vn 0.000000 1.000000 0.000000
vn 0.000000 1.000000 0.000000
vn 0.000000 0.000000 -1.000000
vn 0.000000 0.000000 -1.000000
vn 0.000000 0.000000 -1.000000
vn 0.000000 0.000000 -1.000000
vn 0.000000 -1.000000 0.000000
vn 0.000000 -1.000000 0.000000
vn 0.000000 -1.000000 0.000000
vn 0.000000 -1.000000 0.000000
vn 0.000000 -1.000000 0.000000
vn 0.000000 -1.000000 0.000000
vn 0.000000 -1.000000 0.000000
vn 0.000000 -1.000000 0.000000
vn 0.000000 -1.000000 0.000000
vn 0.000000 -1.000000 0.000000
vn 0.000000 0.000000 1.000000
vn 0.000000 0.000000 1.000000
vn 0.000000 1.000000 0.000000
vn 0.000000 1.000000 0.000000
vn 0.000000 1.000000 0.000000
vn 0.000000 1.000000 0.000000
vn 0.000000 0.000000 1.000000
vn 0.000000 0.000000 1.000000
vn 0.000000 0.000000 1.000000
vn 0.000000 0.000000 -1.000000
vn 0.016306 0.000000 -0.999867
vn 0.015845 0.000000 -0.999874
vn 0.000000 0.000000 -1.000000
vn 0.000000 0.000000 1.000000
vn 0.000000 0.000000 -1.000000
vn 0.000000 0.000000 -1.000000
vn 0.000000 0.000000 1.000000
vn 1.000000 0.000000 0.000000
vn 1.000000 0.000000 0.000000
vn 0.000000 0.000000 -1.000000
vn 0.000000 0.000000 -1.000000
vn -1.000000 0.000000 0.000000
vn -1.000000 0.000000 0.000000
vn 1.000000 0.000000 0.000000
vn 1.000000 0.000000 0.000000
vn 1.000000 0.000000 0.000000
vn 1.000000 0.000000 0.000000
vn 0.000000 0.000000 -1.000000
vn 0.000000 0.000000 -1.000000
vn -1.000000 0.000000 0.000000
vn 1.000000 0.000000 0.000000
vn 1.000000 0.000000 0.000000
vn -1.000000 0.000000 0.000000
vn 0.999867 0.000000 -0.016306
vn 0.999874 0.000000 -0.015845
vn -1.000000 0.000000 0.000000
vn -1.000000 0.000000 0.000000
vn 0.000000 0.000000 1.000000
vn 0.196746 0.000000 -0.980455
vn 0.193435 0.000000 -0.981113
vn 0.924220 0.000000 -0.381861
vn 0.923533 0.000000 -0.383518
vn 0.980455 0.000000 -0.196746
vn 0.981113 0.000000 -0.193434
vn 0.555658 0.000000 -0.831411
vn 0.707108 0.000000 -0.707106
vn 0.707108 0.000000 -0.707106
vn 0.555482 0.000000 -0.831528
vn 0.831411 0.000000 -0.555658
vn 0.831528 0.000000 -0.555482
vn 0.383518 0.000000 -0.923533
vn 0.381861 0.000000 -0.924220
vn 0.000000 1.000000 0.000000
vn 0.000000 1.000000 0.000000
vn 0.000000 1.000000 0.000000
vn 0.000000 1.000000 0.000000
vn 0.000000 1.000000 0.000000
vn 0.000000 1.000000 0.000000
vn 0.000000 1.000000 0.000000
vn 0.000000 1.000000 0.000000
vn 0.000000 1.000000 0.000000
vn 0.000000 1.000000 0.000000
vn 0.000000 1.000000 0.000000
vn 0.000000 1.000000 0.000000
vn 0.000000 1.000000 0.000000
vn 0.000000 1.000000 0.000000
vn 0.000000 1.000000 0.000000
vn 0.000000 1.000000 0.000000
vn 0.000000 1.000000 0.000000
vn 0.000000 1.000000 0.000000
vn 0.000000 1.000000 0.000000
vn 0.000000 1.000000 0.000000
vn 0.000000 1.000000 -0.000000
vn 0.000000 1.000000 -0.000000
vn 0.000000 1.000000 -0.000000
vn 0.000000 1.000000 -0.000000
vn 0.000626 1.000000 -0.000626
vn 0.000000 1.000000 0.000000
vn 0.000000 1.000000 0.000000
vn 0.000000 1.000000 -0.000256
vn 0.000000 1.000000 0.000000
vn 0.000256 1.000000 -0.000000
vn 0.000000 1.000000 0.000000
vn 0.000840 0.972706 -0.232038
vn 0.006311 0.996189 -0.086990
vn 0.000000 1.000000 0.000000
vn 0.000000 1.000000 0.000000
vn 0.000000 1.000000 0.000000
vn 0.000000 1.000000 0.000000
vn 0.000000 1.000000 0.000000
vn 0.000000 1.000000 0.000000
vn 0.000000 1.000000 0.000000
vn 0.000000 1.000000 0.000000
vn -0.007458 0.999939 0.008111
vn -0.010759 0.999884 0.010759
vn -0.007933 0.999937 0.007933
vn 0.086990 0.996189 -0.006311
vn 0.232039 0.972706 -0.000840
vn 0.014406 0.999543 -0.026589
vn 0.026589 0.999543 -0.014406
vn -0.027558 0.999620 -0.000101
vn -0.027049 0.999634 0.000000
vn 0.000101 0.999620 0.027558
vn 0.000000 0.999634 0.027049
vn -0.008111 0.999939 0.007458
vn -0.004252 0.999841 0.017319
vn 0.019145 0.999633 -0.019145
vn -0.017319 0.999841 0.004252
s 1
g CalleInterseccion2:pCube1
f 17/149/1 3/32/2 1/33/3 20/88/4
s 2
f 7/18/5 5/171/6 18/153/7 19/154/8
s off
f 71/64/9 7/65/10 19/66/11 70/67/12
f 67/1/13 8/2/14 6/3/15 66/4/16
s 3
f 7/172/17 71/19/18 72/20/19 5/21/20
s 4
f 77/159/21 11/157/22 10/158/23 76/160/24
s 5
f 78/79/25 68/73/26 11/74/27 77/80/28
s 1
f 83/152/29 9/151/30 12/95/31 82/97/32
s off
f 62/98/33 74/99/34 40/100/35 63/101/36
f 11/157/37 15/155/38 14/156/39 10/158/40
f 68/73/41 69/68/42 15/69/43 11/74/44
s 1
f 9/151/30 13/150/45 16/91/46 12/95/47
s off
f 14/103/48 18/109/49 73/104/50 74/99/51
f 15/155/52 19/154/53 18/153/54 14/156/55
f 69/68/56 70/67/57 19/66/58 15/69/59
s 1
f 13/150/45 17/149/1 20/88/60 16/91/61
s 9
f 76/160/62 10/158/63 21/39/64 75/132/65
s 10
f 10/36/66 62/37/67 57/38/68 21/39/69
s off
f 66/4/70 6/3/71 22/5/72 65/6/73
s 11
f 24/13/74 23/12/75 4/14/76 2/15/77
s 12
f 12/95/78 25/90/79 81/94/80 82/97/81
s off
f 26/84/82 25/90/83 12/95/84 16/91/85
f 27/81/86 26/84/87 16/91/88 20/88/89
f 28/82/90 27/81/91 20/88/92 1/33/93
s 3
f 3/32/94 29/30/95 28/29/96 1/33/97
s off
f 33/7/98 32/8/99 43/10/100 44/11/101
s 14
f 34/78/102 79/85/103 80/89/104 45/83/105
s off
f 35/72/106 34/78/107 45/83/108 46/77/109
f 47/75/110 36/71/111 35/72/112 46/77/113
f 37/70/114 36/71/115 47/75/116 48/76/117
s 3
f 38/23/118 37/22/119 48/26/120 49/27/121
s off
f 44/11/122 43/10/123 23/12/124 24/13/125
s 16
f 45/83/126 80/89/127 81/94/128 25/90/129
s off
f 46/77/130 45/83/131 25/90/132 26/84/133
f 27/81/134 47/75/135 46/77/136 26/84/137
f 48/76/138 47/75/139 27/81/140 28/82/141
s 3
f 49/27/121 48/26/142 28/29/143 29/30/95
s off
f 64/114/144 51/118/145 23/124/146 43/120/147
s 10
f 31/130/148 56/129/149 58/163/150 32/164/151
s off
f 58/113/152 64/114/153 43/120/154 32/121/155
f 63/101/156 40/100/157 41/106/158 42/107/159
s 10
f 56/129/149 55/44/160 59/45/161 58/163/150
f 55/44/160 54/42/162 60/43/163 59/45/161
f 54/42/162 53/40/164 61/41/165 60/43/163
f 53/40/164 57/38/68 62/37/67 61/41/165
s off
f 22/128/166 55/44/167 56/129/168
f 58/113/169 59/119/170 63/101/171
f 63/101/172 61/108/173 62/98/174
f 59/119/175 60/115/176 63/101/177
f 63/101/178 60/115/179 61/108/180
f 22/128/181 56/129/182 31/130/183 65/131/184
f 57/38/185 22/128/186 75/132/187 21/39/188
f 53/40/189 54/42/190 22/128/191
f 53/40/192 22/128/193 57/38/194
f 22/128/195 54/42/196 55/44/197
f 58/113/198 63/101/199 42/107/200 64/114/201
f 42/107/202 52/112/203 51/118/204 64/114/205
f 32/8/206 66/4/207 65/6/208 31/9/209
f 33/7/210 67/1/211 66/4/212 32/8/213
s 19
f 79/85/214 34/78/215 68/73/216 78/79/217
s off
f 34/78/218 35/72/219 69/68/220 68/73/221
f 35/72/222 36/71/223 70/67/224 69/68/225
f 37/70/226 71/64/227 70/67/228 36/71/229
s 3
f 72/20/19 71/19/230 37/22/231 38/23/118
s off
f 74/99/232 73/104/233 39/105/234 40/100/235
f 10/102/236 14/103/237 74/99/238 62/98/239
s 9
f 6/162/240 76/160/62 75/132/65 22/128/241
s 4
f 8/161/242 77/159/21 76/160/24 6/162/243
s 5
f 67/86/244 78/79/25 77/80/28 8/87/245
s 19
f 33/92/246 79/85/214 78/79/217 67/86/247
s 14
f 80/89/104 79/85/103 33/92/248 44/93/249
s 16
f 81/94/128 80/89/127 44/93/250 24/96/251
s 12
f 81/94/80 24/96/252 2/15/253 82/97/81
s 1
f 4/14/254 83/152/29 82/97/32 2/15/255
s off
f 102/133/256 103/35/257 86/134/258 85/135/259
s 1
f 17/149/1 13/150/45 87/136/260 86/134/261
f 13/150/45 9/151/30 88/139/262 87/136/260
s 21
f 52/165/263 30/166/264 84/137/265 89/140/266
s 1
f 9/151/30 83/152/29 90/143/267 88/139/262
s 21
f 51/168/268 52/165/263 89/140/266 91/144/269
s 1
f 83/152/29 4/14/254 92/17/270 90/143/267
s 11
f 4/14/76 23/12/75 93/16/271 92/17/272
s 21
f 23/170/273 51/168/268 91/144/269 93/147/274
s 3
f 5/21/20 72/20/19 94/24/275 95/25/276
s 21
f 73/46/277 18/47/278 97/48/279 96/49/280
s 2
f 18/153/7 5/171/6 95/148/281 97/48/282
s 3
f 72/20/19 38/23/118 98/28/283 94/24/275
s 21
f 39/50/284 73/46/277 96/49/280 99/51/285
s 3
f 38/23/118 49/27/121 100/31/286 98/28/283
s 21
f 50/52/287 39/50/284 99/51/285 101/53/288
s 3
f 49/27/121 29/30/95 102/34/289 100/31/286
f 29/30/95 3/32/94 103/35/290 102/34/289
s 1
f 3/32/2 17/149/1 86/134/261 103/35/291
s 21
f 84/137/265 30/166/264 116/167/292 117/141/293
f 109/56/294 104/57/295 114/55/296 115/54/297
f 111/62/298 105/60/299 108/61/300 110/63/301
f 113/58/302 104/57/295 109/56/294 112/59/303
f 106/169/304 111/62/298 110/63/301 107/145/305
f 105/60/299 113/58/302 112/59/303 108/61/300
f 115/54/297 114/55/296 50/52/287 101/53/288
f 117/141/293 116/167/292 106/169/304 107/145/305
s off
f 95/148/306 94/146/307 96/49/308 97/48/309
f 94/146/310 98/142/311 99/51/312 96/49/313
f 98/142/314 100/138/315 101/53/316 99/51/317
f 87/136/318 88/139/319 89/140/320 84/137/321
f 88/139/322 90/143/323 91/144/324 89/140/325
f 90/143/326 92/17/327 93/147/328 91/144/329
s 25
f 85/135/330 86/134/331 87/136/332 84/137/333
f 102/133/334 85/135/330 101/53/335 100/138/336
f 117/141/337 107/145/338 85/135/330
s off
f 42/107/339 41/106/340 30/111/341 52/112/342
f 39/105/343 50/110/344 41/106/345 40/100/346
s 28
f 111/126/347 41/106/348 105/127/349
s 25
f 85/135/330 109/56/350 115/54/351
f 85/135/330 107/145/338 110/63/352
f 85/135/330 112/59/353 109/56/350
s 28
f 116/117/354 30/111/355 41/106/348
f 114/116/356 41/106/348 50/110/357
f 105/127/349 41/106/348 113/125/358
f 104/122/359 41/106/348 114/116/356
f 113/125/358 41/106/348 104/122/359
s 25
f 85/135/330 115/54/351 101/53/335
f 85/135/330 108/61/360 112/59/353
s 28
f 106/123/361 41/106/348 111/126/347
f 116/117/354 41/106/348 106/123/361
s 25
f 85/135/330 110/63/352 108/61/360
f 117/141/337 85/135/330 84/137/333
