# This file uses centimeters as units for non-parametric coordinates.

g default
v -5.000000 -0.500000 5.000000
v 5.000000 -0.500000 5.000000
v -5.000000 0.500000 5.000000
v 5.000000 0.500000 5.000000
v -5.000000 0.500000 -5.000000
v 5.000000 0.500000 -5.000000
v -5.000000 -0.500000 -5.000000
v 5.000000 -0.500000 -5.000000
v 3.000000 0.500000 5.000000
v 3.000000 0.500000 -5.000000
v 3.000000 -0.500000 -5.000000
v 3.000000 -0.500000 5.000000
v 0.000000 0.500000 5.000000
v 0.000000 0.500000 -5.000000
v 0.000000 -0.500000 -5.000000
v 0.000000 -0.500000 5.000000
v -3.000000 0.500000 5.000000
v -3.000000 0.500000 -5.000000
v -3.000000 -0.500000 -5.000000
v -3.000000 -0.500000 5.000000
v -5.000000 0.650000 5.000000
v -5.000000 0.650000 -5.000000
v -3.000000 0.650000 5.000000
v -3.000000 0.650000 -5.000000
v 3.000000 0.650000 -5.000000
v 5.000000 0.650000 -5.000000
v 3.000000 0.650000 5.000000
v 5.000000 0.650000 5.000000
v 5.000000 0.650000 3.000000
v 5.000000 0.500000 3.000000
v 5.000000 -0.500000 3.000000
v 3.000000 -0.500000 3.000000
v 0.000000 -0.500000 3.000000
v -3.000000 -0.500000 3.000000
v -5.000000 -0.500000 3.000000
v -5.000000 0.500000 3.000000
v -5.000000 0.650000 3.000000
v -3.000000 0.650000 3.000000
v -3.000000 0.500000 3.000000
v 0.000000 0.500000 3.000000
v 5.000000 0.650000 -3.000000
v 5.000000 0.500000 -3.000000
v 5.000000 -0.500000 -3.000000
v 3.000000 -0.500000 -3.000000
v 0.000000 -0.500000 -3.000000
v -3.000000 -0.500000 -3.000000
v -5.000000 -0.500000 -3.000000
v -5.000000 0.500000 -3.000000
v -5.000000 0.650000 -3.000000
v -3.000000 0.650000 -3.000000
v -3.000000 0.500000 -3.000000
v 0.000000 0.500000 -3.000000
v 0.000000 0.500000 0.000000
v 3.000000 0.500000 0.000000
v 5.000000 0.500000 0.000000
v 5.000000 -0.500000 0.000000
v 3.000000 -0.500000 0.000000
v 0.000000 -0.500000 0.000000
v -3.000000 -0.500000 0.000000
v -5.000000 -0.500000 0.000000
v -5.000000 0.500000 0.000000
v -5.000000 0.650000 0.000000
v -3.000000 0.650000 0.000000
v -3.000000 0.500000 0.000000
v 3.617255 0.650000 3.076113
v 3.292864 0.650000 3.292864
v 3.076113 0.650000 3.617255
v 3.000000 0.650000 3.999900
v 3.999900 0.650000 3.000000
v 3.999900 0.500000 3.000000
v 3.000000 0.500000 3.000000
v 3.000000 0.500000 3.999900
v 3.076113 0.500000 3.617255
v 3.292864 0.500000 3.292864
v 3.617255 0.500000 3.076113
v 3.076113 0.650000 -3.617255
v 3.292864 0.650000 -3.292864
v 3.617255 0.650000 -3.076113
v 3.999900 0.650000 -3.000000
v 3.000000 0.650000 -3.999900
v 3.999900 0.500000 -3.000000
v 3.617255 0.500000 -3.076113
v 3.292864 0.500000 -3.292864
v 3.076113 0.500000 -3.617255
v 3.000000 0.500000 -3.999900
v 3.000000 0.500000 -3.000000
vt 0.009235 0.260540
vt 0.009544 0.162317
vt 0.058658 0.162468
vt 0.058347 0.260692
vt 0.606288 0.164153
vt 0.058837 0.105990
vt 0.059142 0.007766
vt 0.550278 0.009279
vt 0.549808 0.163979
vt 0.549955 0.114868
vt 0.598625 0.262351
vt 0.549512 0.262200
vt 0.056832 0.653537
vt 0.548600 0.654958
vt 0.548930 0.703829
vt 0.056192 0.702547
vt 0.549024 0.711137
vt 0.056050 0.709889
vt 0.548710 0.556828
vt 0.597834 0.556973
vt 0.597667 0.655131
vt 0.057330 0.555351
vt 0.007765 0.653394
vt 0.008206 0.555197
vt 0.754435 0.720733
vt 0.755427 0.237364
vt 0.549084 0.409526
vt 0.598199 0.409676
vt 0.057866 0.408026
vt 0.008751 0.407874
vt 0.609424 0.720435
vt 0.610416 0.237066
vt 0.001868 0.260517
vt 0.605992 0.262374
vt 0.605201 0.556996
vt 0.605033 0.655154
vt 0.000399 0.653371
vt 0.000839 0.555174
vt 0.155451 0.653926
vt 0.155661 0.555677
vt 0.156114 0.408333
vt 0.156579 0.260996
vt 0.156887 0.162771
vt 0.157040 0.113660
vt 0.157063 0.106293
vt 0.157367 0.008069
vt 0.610218 0.333740
vt 0.755228 0.334038
vt 0.449986 0.654855
vt 0.450380 0.556579
vt 0.450837 0.409235
vt 0.451281 0.261900
vt 0.451579 0.163677
vt 0.451729 0.114566
vt 0.451751 0.107199
vt 0.452053 0.008976
vt 0.609622 0.623761
vt 0.754931 0.479048
vt 0.302718 0.654382
vt 0.303021 0.556138
vt 0.303475 0.408789
vt 0.303930 0.261450
vt 0.304233 0.163225
vt 0.304384 0.114113
vt 0.304407 0.106747
vt 0.304710 0.008523
vt 0.609920 0.478751
vt 0.899941 0.479346
vt 0.996615 0.479544
vt 0.442058 0.712076
vt 0.754633 0.624059
vt 0.900437 0.237662
vt 0.058800 0.810681
vt 0.996912 0.334534
vt 0.449518 0.711481
vt 0.899445 0.721030
vt 0.546436 0.811819
vt 0.107033 0.807857
vt 0.948571 0.334435
vt 0.450790 0.760114
vt 0.899544 0.672689
vt 0.155575 0.710467
vt 0.154268 0.758910
vt 0.498284 0.808893
vt 0.108470 0.815134
vt 0.900239 0.334335
vt 0.443529 0.761381
vt 0.899643 0.624357
vt 0.150138 0.776928
vt 0.139933 0.792435
vt 0.124867 0.803221
vt 0.903979 0.304507
vt 0.914424 0.320208
vt 0.930083 0.330718
vt 0.480463 0.804267
vt 0.465295 0.793596
vt 0.454952 0.778165
vt 0.929472 0.628097
vt 0.913770 0.638542
vt 0.903261 0.654200
vt 0.496908 0.816077
vt 0.477275 0.810741
vt 0.460168 0.798733
vt 0.448431 0.781373
vt 0.947976 0.624456
vt 0.161437 0.760128
vt 0.156680 0.779971
vt 0.145187 0.797443
vt 0.128224 0.809667
vt 0.900338 0.286003
vt 0.545682 0.819191
vt 0.996317 0.624555
vt 0.155478 0.703076
vt 0.304733 0.001157
vt 0.157390 0.000703
vt 0.302567 0.703500
vt 0.452076 0.001610
vt 0.059165 0.000400
vt 0.549978 0.107502
vt 0.598921 0.164130
vt 0.058813 0.113357
vt 0.002178 0.162294
vt 0.550301 0.001912
vt 0.059541 0.818056
vt 0.449658 0.704056
vt 0.163030 0.711052
vn 0.000000 0.000000 1.000000
vn 0.000000 0.000000 1.000000
vn 0.000000 0.000000 1.000000
vn 0.000000 0.000000 1.000000
vn 0.000000 1.000000 0.000000
vn 0.000000 1.000000 0.000000
vn 0.000000 1.000000 0.000000
vn 0.000000 1.000000 0.000000
vn 0.000000 0.000000 -1.000000
vn 0.000000 0.000000 -1.000000
vn 0.000000 0.000000 -1.000000
vn 0.000000 0.000000 -1.000000
vn 0.000000 -1.000000 0.000000
vn 0.000000 -1.000000 0.000000
vn 0.000000 -1.000000 0.000000
vn 0.000000 -1.000000 0.000000
vn 1.000000 0.000000 0.000000
vn 1.000000 0.000000 0.000000
vn 1.000000 0.000000 0.000000
vn 1.000000 0.000000 0.000000
vn -1.000000 0.000000 0.000000
vn -1.000000 0.000000 0.000000
vn -1.000000 0.000000 0.000000
vn -1.000000 0.000000 0.000000
vn 0.000000 0.000000 -1.000000
vn 0.000000 0.000000 -1.000000
vn 0.000000 0.000000 -1.000000
vn 0.000000 0.000000 -1.000000
vn 0.000000 -1.000000 0.000000
vn 0.000000 -1.000000 0.000000
vn 0.000000 -1.000000 0.000000
vn 0.000000 -1.000000 0.000000
vn 0.000000 0.000000 1.000000
vn 0.000000 0.000000 1.000000
vn 0.000000 0.000000 1.000000
vn 0.000000 0.000000 1.000000
vn 0.000000 1.000000 0.000000
vn 0.000000 1.000000 0.000000
vn 0.000000 1.000000 0.000000
vn 0.000000 1.000000 0.000000
vn 0.000000 1.000000 0.000000
vn 0.000000 0.000000 -1.000000
vn 0.000000 0.000000 -1.000000
vn 0.000000 0.000000 -1.000000
vn 0.000000 0.000000 -1.000000
vn 0.000000 -1.000000 0.000000
vn 0.000000 -1.000000 0.000000
vn 0.000000 -1.000000 0.000000
vn 0.000000 -1.000000 0.000000
vn 0.000000 0.000000 1.000000
vn 0.000000 0.000000 1.000000
vn 0.000000 0.000000 1.000000
vn 0.000000 0.000000 1.000000
vn 0.000000 1.000000 0.000000
vn 0.000000 1.000000 0.000000
vn 0.000000 1.000000 0.000000
vn 0.000000 1.000000 0.000000
vn 0.000000 0.000000 -1.000000
vn 0.000000 0.000000 -1.000000
vn 0.000000 0.000000 -1.000000
vn 0.000000 0.000000 -1.000000
vn 0.000000 -1.000000 0.000000
vn 0.000000 -1.000000 0.000000
vn 0.000000 -1.000000 0.000000
vn 0.000000 -1.000000 0.000000
vn 0.000000 0.000000 1.000000
vn 0.000000 0.000000 1.000000
vn 0.000000 0.000000 1.000000
vn 0.000000 0.000000 1.000000
vn -1.000000 0.000000 0.000000
vn -1.000000 0.000000 0.000000
vn -1.000000 0.000000 0.000000
vn -1.000000 0.000000 0.000000
vn 0.000000 0.000000 1.000000
vn 0.000000 0.000000 1.000000
vn 0.000000 0.000000 1.000000
vn 0.000000 0.000000 1.000000
vn 1.000000 0.000000 0.000000
vn 1.000000 0.000000 0.000000
vn 1.000000 0.000000 0.000000
vn 1.000000 0.000000 0.000000
vn 0.000000 0.000000 -1.000000
vn 0.000000 0.000000 -1.000000
vn 0.000000 0.000000 -1.000000
vn 0.000000 0.000000 -1.000000
vn 0.000000 0.000000 -1.000000
vn 0.000000 0.000000 -1.000000
vn 0.000000 0.000000 -1.000000
vn 0.000000 0.000000 -1.000000
vn -1.000000 0.000000 0.000000
vn -0.998488 0.000000 0.054961
vn -0.998488 0.000000 0.054961
vn -1.000000 0.000000 0.000000
vn 0.000000 0.000000 1.000000
vn 0.000000 0.000000 1.000000
vn 0.000000 0.000000 1.000000
vn 0.000000 0.000000 1.000000
vn 1.000000 0.000000 0.000000
vn 1.000000 0.000000 0.000000
vn 1.000000 0.000000 0.000000
vn 1.000000 0.000000 0.000000
vn 1.000000 0.000000 0.000000
vn 1.000000 0.000000 0.000000
vn 1.000000 0.000000 0.000000
vn 1.000000 0.000000 0.000000
vn 1.000000 0.000000 0.000000
vn 1.000000 0.000000 0.000000
vn 1.000000 0.000000 0.000000
vn 1.000000 0.000000 0.000000
vn 0.000000 -1.000000 0.000000
vn 0.000000 -1.000000 0.000000
vn 0.000000 -1.000000 0.000000
vn 0.000000 -1.000000 0.000000
vn 0.000000 -1.000000 0.000000
vn 0.000000 -1.000000 0.000000
vn 0.000000 -1.000000 0.000000
vn 0.000000 -1.000000 0.000000
vn 0.000000 -1.000000 0.000000
vn 0.000000 -1.000000 0.000000
vn 0.000000 -1.000000 0.000000
vn 0.000000 -1.000000 0.000000
vn 0.000000 -1.000000 0.000000
vn 0.000000 -1.000000 0.000000
vn 0.000000 -1.000000 0.000000
vn 0.000000 -1.000000 0.000000
vn -1.000000 0.000000 0.000000
vn -1.000000 0.000000 0.000000
vn -1.000000 0.000000 0.000000
vn -1.000000 0.000000 0.000000
vn -1.000000 0.000000 0.000000
vn -1.000000 0.000000 0.000000
vn -1.000000 0.000000 0.000000
vn -1.000000 0.000000 0.000000
vn 0.000000 1.000000 0.000000
vn 0.000000 1.000000 0.000000
vn 0.000000 1.000000 0.000000
vn 0.000000 1.000000 0.000000
vn 1.000000 0.000000 0.000000
vn 1.000000 0.000000 0.000000
vn 1.000000 0.000000 0.000000
vn 1.000000 0.000000 0.000000
vn 0.000000 1.000000 0.000000
vn 0.000000 1.000000 0.000000
vn 0.000000 1.000000 0.000000
vn 0.000000 1.000000 0.000000
vn -0.998488 0.000000 -0.054961
vn -0.998488 0.000000 -0.054961
vn -1.000000 0.000000 0.000000
vn -1.000000 0.000000 0.000000
vn 1.000000 0.000000 0.000000
vn 1.000000 0.000000 0.000000
vn 0.000000 -1.000000 0.000000
vn 0.000000 -1.000000 0.000000
vn 0.000000 -1.000000 0.000000
vn 0.000000 -1.000000 0.000000
vn 0.000000 -1.000000 0.000000
vn 0.000000 -1.000000 0.000000
vn 0.000000 -1.000000 0.000000
vn 0.000000 -1.000000 0.000000
vn -1.000000 0.000000 0.000000
vn -1.000000 0.000000 0.000000
vn -1.000000 0.000000 0.000000
vn -1.000000 0.000000 0.000000
vn 0.000000 1.000000 0.000000
vn 0.000000 1.000000 0.000000
vn 1.000000 0.000000 0.000000
vn 1.000000 0.000000 0.000000
vn 0.000000 1.000000 0.000000
vn 0.000000 1.000000 0.000000
vn 0.000000 1.000000 0.000000
vn 0.000000 1.000000 0.000000
vn 0.000000 1.000000 0.000000
vn 0.000000 1.000000 0.000000
vn 0.000000 1.000000 0.000000
vn 0.000000 1.000000 0.000000
vn 0.000000 1.000000 0.000000
vn 0.000000 1.000000 0.000000
vn 0.000000 0.000000 1.000000
vn -0.054961 0.000000 0.998488
vn -0.054961 0.000000 0.998488
vn 0.000000 0.000000 1.000000
vn -0.054961 0.000000 -0.998488
vn -0.054961 0.000000 -0.998488
vn 0.000000 0.000000 -1.000000
vn 0.000000 0.000000 -1.000000
vn 0.000000 1.000000 0.000000
vn 0.000000 1.000000 0.000000
vn 0.000000 1.000000 0.000000
vn 0.000000 1.000000 0.000000
vn 0.000000 1.000000 0.000000
vn 0.000000 1.000000 0.000000
vn 0.000000 1.000000 0.000000
vn -0.923880 0.000000 -0.382683
vn -0.923880 0.000000 -0.382683
vn -0.707107 0.000000 -0.707107
vn -0.707107 0.000000 -0.707107
vn -0.382683 0.000000 -0.923880
vn -0.382683 0.000000 -0.923880
vn -0.382683 0.000000 0.923880
vn -0.382683 0.000000 0.923880
vn -0.707107 0.000000 0.707107
vn -0.707107 0.000000 0.707107
vn -0.923880 0.000000 0.382683
vn -0.923880 0.000000 0.382683
vn 0.000000 1.000000 -0.000000
vn 0.000000 1.000000 0.000000
vn 0.000000 1.000000 0.000000
vn 0.000000 1.000000 0.000000
vn 0.000000 1.000000 0.000000
vn 0.000000 1.000000 0.000000
vn 0.000000 1.000000 0.000000
vn 0.000000 1.000000 0.000000
vn 0.000000 1.000000 0.000000
vn 0.000000 1.000000 0.000000
vn 0.000000 1.000000 0.000000
vn 0.000000 1.000000 0.000000
vn 0.000000 1.000000 0.000000
vn 0.000000 1.000000 0.000000
vn 0.000000 1.000000 0.000000
vn 0.000000 1.000000 0.000000
vn 0.000000 1.000000 0.000000
vn 0.000000 1.000000 -0.000000
vn 0.000000 1.000000 0.000000
vn 0.000000 1.000000 -0.000000
vn 0.000000 1.000000 0.000000
vn 0.000000 1.000000 0.000000
s off
g pCube1
f 17/1/1 3/2/2 1/3/3 20/4/4
s 1
f 22/119/5 49/55/6 50/56/7 24/8/8
s off
f 7/9/9 5/120/10 18/11/11 19/12/12
s 2
f 47/53/13 7/9/14 19/12/15 46/52/16
s 3
f 43/49/17 8/14/18 6/15/19 42/125/20
s 4
f 7/9/21 47/53/22 48/54/23 5/10/24
s off
f 8/14/25 11/19/26 10/20/27 6/21/28
s 5
f 43/49/29 44/50/30 11/19/31 8/14/32
s off
f 4/23/33 9/24/34 12/22/35 2/13/36
s 6
f 10/76/37 14/25/38 52/71/39 86/88/40 85/81/41
s off
f 11/19/42 15/27/43 14/28/44 10/20/45
s 7
f 44/50/46 45/51/47 15/27/48 11/19/49
s off
f 9/24/50 13/30/51 16/29/52 12/22/53
s 8
f 14/25/54 18/31/55 51/57/56 52/71/57
s off
f 15/27/58 19/12/59 18/11/60 14/28/61
s 9
f 45/51/62 46/52/63 19/12/64 15/27/65
s off
f 13/30/66 17/1/67 20/4/68 16/29/69
s 10
f 5/10/70 48/54/71 49/55/72 22/119/73
s off
f 3/2/74 17/1/75 23/33/76 21/122/77
s 11
f 51/117/78 18/123/79 24/8/80 50/56/81
s off
f 18/11/82 5/120/83 22/5/84 24/34/85
f 6/21/86 10/20/87 25/35/88 26/36/89
s 12
f 10/111/90 85/101/91 80/84/92 25/77/93
s off
f 9/24/94 4/23/95 28/37/96 27/38/97
f 42/125/98 6/15/99 26/17/100 41/75/101
f 4/16/102 30/113/103 29/82/104 28/18/105
s 3
f 2/13/106 31/39/107 30/113/108 4/16/109
s 5
f 2/13/110 12/22/111 32/40/112 31/39/113
s 7
f 12/22/114 16/29/115 33/41/116 32/40/117
s 9
f 16/29/118 20/4/119 34/42/120 33/41/121
s 2
f 1/3/122 35/43/123 34/42/124 20/4/125
s 4
f 36/44/126 35/43/127 1/3/128 3/121/129
s 10
f 37/45/130 36/44/131 3/121/132 21/6/133
s 1
f 38/46/134 37/45/135 21/6/136 23/7/137
s 11
f 17/118/138 39/115/139 38/46/140 23/7/141
s 8
f 40/48/142 39/47/143 17/32/144 13/26/145
s 23
f 68/78/146 72/85/147 9/124/148 27/73/149
s 3
f 43/49/17 42/125/20 55/116/150 56/59/151
s 5
f 44/50/30 43/49/29 56/59/152 57/60/153
s 7
f 45/51/47 44/50/46 57/60/154 58/61/155
s 9
f 59/62/156 46/52/63 45/51/62 58/61/157
s 2
f 47/53/13 46/52/16 59/62/158 60/63/159
s 4
f 48/54/23 47/53/22 60/63/160 61/64/161
s 10
f 62/65/162 49/55/72 48/54/71 61/64/163
s 1
f 50/56/7 49/55/6 62/65/164 63/66/165
s 11
f 64/114/166 51/117/78 50/56/81 63/66/167
s 8
f 64/67/168 53/58/169 52/71/57 51/57/56
s 6
f 54/68/170 53/58/171 40/48/172 71/86/173
s 3
f 56/59/151 55/116/150 30/113/108 31/39/107
s 5
f 57/60/153 56/59/152 31/39/113 32/40/112
s 7
f 58/61/155 57/60/154 32/40/117 33/41/116
s 9
f 34/42/120 59/62/156 58/61/157 33/41/121
s 2
f 60/63/159 59/62/158 34/42/124 35/43/123
s 4
f 61/64/161 60/63/160 35/43/127 36/44/126
s 10
f 37/45/130 62/65/162 61/64/163 36/44/131
s 1
f 63/66/165 62/65/164 37/45/135 38/46/134
s 11
f 39/115/139 64/114/166 63/66/167 38/46/140
s 8
f 40/48/142 53/58/169 64/67/168 39/47/143
s 6
f 54/68/174 71/86/173 70/79/175 30/74/176 55/69/177
s 12
f 41/75/178 79/80/179 81/87/180 42/70/181
s 23
f 70/106/182 69/83/183 29/82/184 30/126/185
s 6
f 72/110/186 71/86/173 40/48/172 13/26/187 9/72/188
f 81/105/189 86/88/40 54/68/190 55/69/191 42/112/192
f 86/88/40 52/71/39 53/58/171 54/68/170
s 23
f 68/78/146 67/91/193 73/109/194 72/85/147
f 67/91/193 66/90/195 74/108/196 73/109/194
f 66/90/195 65/89/197 75/107/198 74/108/196
f 65/89/197 69/83/183 70/106/182 75/107/198
s 12
f 79/80/179 78/97/199 82/104/200 81/87/180
f 78/97/199 77/96/201 83/103/202 82/104/200
f 77/96/201 76/95/203 84/102/204 83/103/202
f 76/95/203 80/84/92 85/101/91 84/102/204
s 28
f 28/18/205 67/91/206 68/78/207
s 29
f 26/17/208 78/97/209 79/80/210
s 6
f 72/110/186 73/92/211 71/86/173
f 71/86/173 75/94/212 70/79/175
f 73/92/211 74/93/213 71/86/173
f 71/86/173 74/93/213 75/94/212
f 81/105/189 82/98/214 86/88/40
f 86/88/40 84/100/215 85/81/41
f 82/98/214 83/99/216 86/88/40
f 86/88/40 83/99/216 84/100/215
s 29
f 26/17/208 79/80/210 41/75/217
f 80/84/218 26/17/208 25/77/219
f 76/95/220 77/96/221 26/17/208
f 76/95/220 26/17/208 80/84/218
f 26/17/208 77/96/221 78/97/209
s 28
f 69/83/222 28/18/205 29/82/223
f 65/89/224 66/90/225 28/18/205
f 65/89/224 28/18/205 69/83/222
f 28/18/205 68/78/207 27/73/226
f 28/18/205 66/90/225 67/91/206
