# This file uses centimeters as units for non-parametric coordinates.

g default
v -0.671768 1.306288 -0.485824
v -0.413728 1.306288 -0.485824
v -0.671768 1.751703 -0.485824
v -0.413728 1.751703 -0.485824
v -0.671768 1.751703 -0.520707
v -0.413728 1.751703 -0.520707
v -0.671768 1.306288 -0.520707
v -0.413728 1.306288 -0.520707
v -0.475344 1.410931 -0.520707
v -0.465299 1.410931 -0.520707
v -0.465299 1.346316 -0.520707
v -0.475344 1.346316 -0.520707
v -0.750000 0.101136 0.500000
v 0.750000 0.101136 0.500000
v -0.750000 2.500000 0.500000
v 0.750000 2.500000 0.500000
v -0.750000 2.500000 -0.500000
v 0.750000 2.500000 -0.500000
v -0.750000 0.101136 -0.500000
v 0.750000 0.101136 -0.500000
v 0.590669 0.101136 -0.500000
v 0.590669 0.101136 0.500000
v 0.590669 2.500000 0.500000
v 0.590669 2.500000 -0.500000
v -0.590669 0.101136 -0.500000
v -0.590669 0.101136 0.500000
v -0.590669 2.500000 0.500000
v -0.590669 2.500000 -0.500000
v -0.750000 0.101136 0.343912
v -0.750000 2.500000 0.343912
v -0.590669 2.500000 0.343912
v 0.590669 2.500000 0.343912
v 0.750000 2.500000 0.343912
v 0.750000 0.101136 0.343912
v 0.590669 0.101136 0.343912
v -0.590669 0.101136 0.343912
v -0.750000 0.101136 -0.343912
v -0.750000 2.500000 -0.343912
v -0.590669 2.500000 -0.343912
v 0.590669 2.500000 -0.343912
v 0.750000 2.500000 -0.343912
v 0.750000 0.101136 -0.343912
v 0.590669 0.101136 -0.343912
v -0.590669 0.101136 -0.343912
v -0.740000 0.000000 -0.490000
v -0.600669 0.000000 -0.490000
v -0.600669 0.000000 -0.353912
v -0.740000 0.000000 -0.353912
v 0.600669 0.000000 -0.490000
v 0.740000 0.000000 -0.490000
v 0.740000 0.000000 -0.353912
v 0.600669 0.000000 -0.353912
v 0.740000 0.000000 0.353912
v 0.600669 0.000000 0.353912
v 0.740000 0.000000 0.490000
v 0.600669 0.000000 0.490000
v -0.600669 0.000000 0.353912
v -0.740000 0.000000 0.353912
v -0.600669 0.000000 0.490000
v -0.740000 0.000000 0.490000
v -0.590669 2.348639 -0.500000
v -0.750000 2.348639 -0.500000
v -0.750000 2.348639 -0.343912
v -0.750000 2.348639 0.343912
v -0.750000 2.348639 0.500000
v -0.590669 2.348639 0.500000
v 0.590669 2.348639 0.500000
v 0.750000 2.348639 0.500000
v 0.750000 2.348639 0.343912
v 0.750000 2.348639 -0.343912
v 0.750000 2.348639 -0.500000
v 0.590669 2.348639 -0.500000
v -0.590669 0.246511 0.500000
v -0.750000 0.246511 0.500000
v -0.750000 0.246511 0.343912
v -0.750000 0.246511 -0.343912
v -0.750000 0.246511 -0.500000
v -0.590669 0.246511 -0.500000
v 0.590669 0.246511 -0.500000
v 0.750000 0.246511 -0.500000
v 0.750000 0.246511 -0.343912
v 0.750000 0.246511 0.343912
v 0.750000 0.246511 0.500000
v 0.590669 0.246511 0.500000
v -0.750000 0.101136 0.500000
v 0.750000 0.101136 0.500000
v -0.750000 2.500000 0.500000
v 0.750000 2.500000 0.500000
v -0.750000 2.500000 -0.500000
v 0.750000 2.500000 -0.500000
v -0.750000 0.101136 -0.500000
v 0.750000 0.101136 -0.500000
v 0.590669 0.101136 -0.500000
v 0.590669 0.101136 0.500000
v 0.590669 2.500000 0.500000
v 0.590669 2.500000 -0.500000
v -0.590669 0.101136 -0.500000
v -0.590669 0.101136 0.500000
v -0.590669 2.500000 0.500000
v -0.590669 2.500000 -0.500000
v -0.750000 0.101136 0.343912
v -0.750000 2.500000 0.343912
v -0.590669 2.500000 0.343912
v 0.590669 2.500000 0.343912
v 0.750000 2.500000 0.343912
v 0.750000 0.101136 0.343912
v 0.590669 0.101136 0.343912
v -0.590669 0.101136 0.343912
v -0.750000 0.101136 -0.343912
v -0.750000 2.500000 -0.343912
v -0.590669 2.500000 -0.343912
v 0.590669 2.500000 -0.343912
v 0.750000 2.500000 -0.343912
v 0.750000 0.101136 -0.343912
v 0.590669 0.101136 -0.343912
v -0.590669 0.101136 -0.343912
v -0.740000 0.000000 -0.490000
v -0.600669 0.000000 -0.490000
v -0.600669 0.000000 -0.353912
v -0.740000 0.000000 -0.353912
v 0.600669 0.000000 -0.490000
v 0.740000 0.000000 -0.490000
v 0.740000 0.000000 -0.353912
v 0.600669 0.000000 -0.353912
v 0.740000 0.000000 0.353912
v 0.600669 0.000000 0.353912
v 0.740000 0.000000 0.490000
v 0.600669 0.000000 0.490000
v -0.600669 0.000000 0.353912
v -0.740000 0.000000 0.353912
v -0.600669 0.000000 0.490000
v -0.740000 0.000000 0.490000
v -0.590669 2.348639 -0.500000
v -0.750000 2.348639 -0.500000
v -0.750000 2.348639 -0.343912
v -0.750000 2.348639 0.343912
v -0.750000 2.348639 0.500000
v -0.590669 2.348639 0.500000
v 0.590669 2.348639 0.500000
v 0.750000 2.348639 0.500000
v 0.750000 2.348639 0.343912
v 0.750000 2.348639 -0.343912
v 0.750000 2.348639 -0.500000
v 0.590669 2.348639 -0.500000
v -0.590669 0.246511 0.500000
v -0.750000 0.246511 0.500000
v -0.750000 0.246511 0.343912
v -0.750000 0.246511 -0.343912
v -0.750000 0.246511 -0.500000
v -0.590669 0.246511 -0.500000
v 0.590669 0.246511 -0.500000
v 0.750000 0.246511 -0.500000
v 0.750000 0.246511 -0.343912
v 0.750000 0.246511 0.343912
v 0.750000 0.246511 0.500000
v 0.590669 0.246511 0.500000
v -0.333501 0.873257 -0.445765
v 0.596684 0.873257 -0.445765
v -0.333501 2.352445 -0.445765
v 0.596684 2.352445 -0.445765
v -0.333501 2.352445 -0.570038
v 0.596684 2.352445 -0.570038
v -0.333501 0.873257 -0.570038
v 0.596684 0.873257 -0.570038
v -0.283501 2.302445 -0.570038
v 0.546684 2.302445 -0.570038
v 0.546684 0.923257 -0.570038
v -0.283501 0.923257 -0.570038
v -0.283501 2.302445 -0.520038
v 0.546684 2.302445 -0.520038
v 0.546684 0.923257 -0.520038
v -0.283501 0.923257 -0.520038
v -0.440210 1.681134 -0.486706
v -0.450587 1.670757 -0.486706
v -0.464763 1.666958 -0.486706
v -0.478938 1.670757 -0.486706
v -0.489315 1.681134 -0.486706
v -0.493113 1.695309 -0.486706
v -0.489315 1.709484 -0.486706
v -0.478938 1.719861 -0.486706
v -0.464763 1.723659 -0.486706
v -0.450587 1.719861 -0.486706
v -0.440210 1.709484 -0.486706
v -0.436412 1.695309 -0.486706
v -0.440210 1.681134 -0.543407
v -0.450587 1.670757 -0.543407
v -0.464763 1.666958 -0.543407
v -0.478938 1.670757 -0.543407
v -0.489315 1.681134 -0.543407
v -0.493113 1.695309 -0.543407
v -0.489315 1.709484 -0.543407
v -0.478938 1.719861 -0.543407
v -0.464763 1.723659 -0.543407
v -0.450587 1.719861 -0.543407
v -0.440210 1.709484 -0.543407
v -0.436412 1.695309 -0.543407
v -0.464763 1.695309 -0.543407
v -0.328728 0.339157 -0.479259
v 0.599358 0.339157 -0.479259
v -0.328728 0.624164 -0.479259
v 0.599358 0.624164 -0.479259
v -0.328728 0.624164 -0.522692
v 0.599358 0.624164 -0.522692
v -0.328728 0.339157 -0.522692
v 0.599358 0.339157 -0.522692
v -0.298728 0.594164 -0.522692
v 0.569358 0.594164 -0.522692
v 0.569358 0.369157 -0.522692
v -0.298728 0.369157 -0.522692
v -0.520483 1.681134 -0.486706
v -0.530860 1.670757 -0.486706
v -0.545035 1.666958 -0.486706
v -0.559211 1.670757 -0.486706
v -0.569587 1.681134 -0.486706
v -0.573386 1.695309 -0.486706
v -0.569587 1.709484 -0.486706
v -0.559211 1.719861 -0.486706
v -0.545035 1.723659 -0.486706
v -0.530860 1.719861 -0.486706
v -0.520483 1.709484 -0.486706
v -0.516685 1.695309 -0.486706
v -0.520483 1.681134 -0.543407
v -0.530860 1.670757 -0.543407
v -0.545035 1.666958 -0.543407
v -0.559211 1.670757 -0.543407
v -0.569587 1.681134 -0.543407
v -0.573386 1.695309 -0.543407
v -0.569587 1.709484 -0.543407
v -0.559211 1.719861 -0.543407
v -0.545035 1.723659 -0.543407
v -0.530860 1.719861 -0.543407
v -0.520483 1.709484 -0.543407
v -0.516685 1.695309 -0.543407
v -0.545035 1.695309 -0.543407
v -0.599200 1.681134 -0.486706
v -0.609577 1.670757 -0.486706
v -0.623752 1.666958 -0.486706
v -0.637927 1.670757 -0.486706
v -0.648304 1.681134 -0.486706
v -0.652103 1.695309 -0.486706
v -0.648304 1.709484 -0.486706
v -0.637927 1.719861 -0.486706
v -0.623752 1.723659 -0.486706
v -0.609577 1.719861 -0.486706
v -0.599200 1.709484 -0.486706
v -0.595402 1.695309 -0.486706
v -0.599200 1.681134 -0.543407
v -0.609577 1.670757 -0.543407
v -0.623752 1.666958 -0.543407
v -0.637927 1.670757 -0.543407
v -0.648304 1.681134 -0.543407
v -0.652103 1.695309 -0.543407
v -0.648304 1.709484 -0.543407
v -0.637927 1.719861 -0.543407
v -0.623752 1.723659 -0.543407
v -0.609577 1.719861 -0.543407
v -0.599200 1.709484 -0.543407
v -0.595402 1.695309 -0.543407
v -0.623752 1.695309 -0.543407
v -0.599200 1.540754 -0.486706
v -0.609577 1.530377 -0.486706
v -0.623752 1.526579 -0.486706
v -0.637927 1.530377 -0.486706
v -0.648304 1.540754 -0.486706
v -0.652103 1.554929 -0.486706
v -0.648304 1.569105 -0.486706
v -0.637927 1.579482 -0.486706
v -0.623752 1.583280 -0.486706
v -0.609577 1.579482 -0.486706
v -0.599200 1.569105 -0.486706
v -0.595402 1.554929 -0.486706
v -0.599200 1.540754 -0.543407
v -0.609577 1.530377 -0.543407
v -0.623752 1.526579 -0.543407
v -0.637927 1.530377 -0.543407
v -0.648304 1.540754 -0.543407
v -0.652103 1.554929 -0.543407
v -0.648304 1.569105 -0.543407
v -0.637927 1.579482 -0.543407
v -0.623752 1.583280 -0.543407
v -0.609577 1.579482 -0.543407
v -0.599200 1.569105 -0.543407
v -0.595402 1.554929 -0.543407
v -0.623752 1.554929 -0.543407
v -0.520483 1.611049 -0.486706
v -0.530860 1.600672 -0.486706
v -0.545035 1.596873 -0.486706
v -0.559211 1.600672 -0.486706
v -0.569587 1.611049 -0.486706
v -0.573386 1.625224 -0.486706
v -0.569587 1.639399 -0.486706
v -0.559211 1.649776 -0.486706
v -0.545035 1.653574 -0.486706
v -0.530860 1.649776 -0.486706
v -0.520483 1.639399 -0.486706
v -0.516685 1.625224 -0.486706
v -0.520483 1.611049 -0.543407
v -0.530860 1.600672 -0.543407
v -0.545035 1.596873 -0.543407
v -0.559211 1.600672 -0.543407
v -0.569587 1.611049 -0.543407
v -0.573386 1.625224 -0.543407
v -0.569587 1.639399 -0.543407
v -0.559211 1.649776 -0.543407
v -0.545035 1.653574 -0.543407
v -0.530860 1.649776 -0.543407
v -0.520483 1.639399 -0.543407
v -0.516685 1.625224 -0.543407
v -0.545035 1.625224 -0.543407
v -0.599200 1.611049 -0.486706
v -0.609577 1.600672 -0.486706
v -0.623752 1.596873 -0.486706
v -0.637927 1.600672 -0.486706
v -0.648304 1.611049 -0.486706
v -0.652103 1.625224 -0.486706
v -0.648304 1.639399 -0.486706
v -0.637927 1.649776 -0.486706
v -0.623752 1.653574 -0.486706
v -0.609577 1.649776 -0.486706
v -0.599200 1.639399 -0.486706
v -0.595402 1.625224 -0.486706
v -0.599200 1.611049 -0.543407
v -0.609577 1.600672 -0.543407
v -0.623752 1.596873 -0.543407
v -0.637927 1.600672 -0.543407
v -0.648304 1.611049 -0.543407
v -0.652103 1.625224 -0.543407
v -0.648304 1.639399 -0.543407
v -0.637927 1.649776 -0.543407
v -0.623752 1.653574 -0.543407
v -0.609577 1.649776 -0.543407
v -0.599200 1.639399 -0.543407
v -0.595402 1.625224 -0.543407
v -0.623752 1.625224 -0.543407
v -0.440210 1.611049 -0.486706
v -0.450587 1.600672 -0.486706
v -0.464763 1.596873 -0.486706
v -0.478938 1.600672 -0.486706
v -0.489315 1.611049 -0.486706
v -0.493113 1.625224 -0.486706
v -0.489315 1.639399 -0.486706
v -0.478938 1.649776 -0.486706
v -0.464763 1.653574 -0.486706
v -0.450587 1.649776 -0.486706
v -0.440210 1.639399 -0.486706
v -0.436412 1.625224 -0.486706
v -0.440210 1.611049 -0.543407
v -0.450587 1.600672 -0.543407
v -0.464763 1.596873 -0.543407
v -0.478938 1.600672 -0.543407
v -0.489315 1.611049 -0.543407
v -0.493113 1.625224 -0.543407
v -0.489315 1.639399 -0.543407
v -0.478938 1.649776 -0.543407
v -0.464763 1.653574 -0.543407
v -0.450587 1.649776 -0.543407
v -0.440210 1.639399 -0.543407
v -0.436412 1.625224 -0.543407
v -0.464763 1.625224 -0.543407
v -0.440210 1.470669 -0.486706
v -0.450587 1.460292 -0.486706
v -0.464763 1.456494 -0.486706
v -0.478938 1.460292 -0.486706
v -0.489315 1.470669 -0.486706
v -0.493113 1.484845 -0.486706
v -0.489315 1.499020 -0.486706
v -0.478938 1.509397 -0.486706
v -0.464763 1.513195 -0.486706
v -0.450587 1.509397 -0.486706
v -0.440210 1.499020 -0.486706
v -0.436412 1.484845 -0.486706
v -0.440210 1.470669 -0.543407
v -0.450587 1.460292 -0.543407
v -0.464763 1.456494 -0.543407
v -0.478938 1.460292 -0.543407
v -0.489315 1.470669 -0.543407
v -0.493113 1.484845 -0.543407
v -0.489315 1.499020 -0.543407
v -0.478938 1.509397 -0.543407
v -0.464763 1.513195 -0.543407
v -0.450587 1.509397 -0.543407
v -0.440210 1.499020 -0.543407
v -0.436412 1.484845 -0.543407
v -0.464763 1.484845 -0.543407
v -0.599200 1.470669 -0.486706
v -0.609577 1.460292 -0.486706
v -0.623752 1.456494 -0.486706
v -0.637927 1.460292 -0.486706
v -0.648304 1.470669 -0.486706
v -0.652103 1.484845 -0.486706
v -0.648304 1.499020 -0.486706
v -0.637927 1.509397 -0.486706
v -0.623752 1.513195 -0.486706
v -0.609577 1.509397 -0.486706
v -0.599200 1.499020 -0.486706
v -0.595402 1.484845 -0.486706
v -0.599200 1.470669 -0.543407
v -0.609577 1.460292 -0.543407
v -0.623752 1.456494 -0.543407
v -0.637927 1.460292 -0.543407
v -0.648304 1.470669 -0.543407
v -0.652103 1.484845 -0.543407
v -0.648304 1.499020 -0.543407
v -0.637927 1.509397 -0.543407
v -0.623752 1.513195 -0.543407
v -0.609577 1.509397 -0.543407
v -0.599200 1.499020 -0.543407
v -0.595402 1.484845 -0.543407
v -0.623752 1.484845 -0.543407
v -0.440210 1.540754 -0.486706
v -0.450587 1.530377 -0.486706
v -0.464763 1.526579 -0.486706
v -0.478938 1.530377 -0.486706
v -0.489315 1.540754 -0.486706
v -0.493113 1.554929 -0.486706
v -0.489315 1.569105 -0.486706
v -0.478938 1.579482 -0.486706
v -0.464763 1.583280 -0.486706
v -0.450587 1.579482 -0.486706
v -0.440210 1.569105 -0.486706
v -0.436412 1.554929 -0.486706
v -0.440210 1.540754 -0.543407
v -0.450587 1.530377 -0.543407
v -0.464763 1.526579 -0.543407
v -0.478938 1.530377 -0.543407
v -0.489315 1.540754 -0.543407
v -0.493113 1.554929 -0.543407
v -0.489315 1.569105 -0.543407
v -0.478938 1.579482 -0.543407
v -0.464763 1.583280 -0.543407
v -0.450587 1.579482 -0.543407
v -0.440210 1.569105 -0.543407
v -0.436412 1.554929 -0.543407
v -0.464763 1.554929 -0.543407
v -0.520483 1.470669 -0.486706
v -0.530860 1.460292 -0.486706
v -0.545035 1.456494 -0.486706
v -0.559211 1.460292 -0.486706
v -0.569587 1.470669 -0.486706
v -0.573386 1.484845 -0.486706
v -0.569587 1.499020 -0.486706
v -0.559211 1.509397 -0.486706
v -0.545035 1.513195 -0.486706
v -0.530860 1.509397 -0.486706
v -0.520483 1.499020 -0.486706
v -0.516685 1.484845 -0.486706
v -0.520483 1.470669 -0.543407
v -0.530860 1.460292 -0.543407
v -0.545035 1.456494 -0.543407
v -0.559211 1.460292 -0.543407
v -0.569587 1.470669 -0.543407
v -0.573386 1.484845 -0.543407
v -0.569587 1.499020 -0.543407
v -0.559211 1.509397 -0.543407
v -0.545035 1.513195 -0.543407
v -0.530860 1.509397 -0.543407
v -0.520483 1.499020 -0.543407
v -0.516685 1.484845 -0.543407
v -0.545035 1.484845 -0.543407
v -0.520483 1.540754 -0.486706
v -0.530860 1.530377 -0.486706
v -0.545035 1.526579 -0.486706
v -0.559211 1.530377 -0.486706
v -0.569587 1.540754 -0.486706
v -0.573386 1.554929 -0.486706
v -0.569587 1.569105 -0.486706
v -0.559211 1.579482 -0.486706
v -0.545035 1.583280 -0.486706
v -0.530860 1.579482 -0.486706
v -0.520483 1.569105 -0.486706
v -0.516685 1.554929 -0.486706
v -0.520483 1.540754 -0.543407
v -0.530860 1.530377 -0.543407
v -0.545035 1.526579 -0.543407
v -0.559211 1.530377 -0.543407
v -0.569587 1.540754 -0.543407
v -0.573386 1.554929 -0.543407
v -0.569587 1.569105 -0.543407
v -0.559211 1.579482 -0.543407
v -0.545035 1.583280 -0.543407
v -0.530860 1.579482 -0.543407
v -0.520483 1.569105 -0.543407
v -0.516685 1.554929 -0.543407
v -0.545035 1.554929 -0.543407
vt 0.957142 0.075342
vt 0.910826 0.081274
vt 0.910851 0.075240
vt 0.950492 0.075291
vt 0.920332 0.022281
vt 0.918789 0.022279
vt 0.918792 0.012235
vt 0.920335 0.012237
vt 0.950512 0.006053
vt 0.910871 0.006002
vt 0.904220 0.005952
vt 0.950536 0.000019
vt 0.910895 0.000001
vt 0.957151 0.006104
vt 0.904211 0.075189
vt 0.950468 0.081292
vt 0.000000 0.328730
vt 0.028749 0.328730
vt 0.028749 0.349916
vt 0.000000 0.349916
vt 0.281408 0.981097
vt 0.281408 0.954600
vt 0.305111 0.954600
vt 0.305111 0.981097
vt 0.498417 0.731644
vt 0.472063 0.731644
vt 0.472063 0.708532
vt 0.498417 0.708532
vt 0.980839 0.079461
vt 0.998918 0.079461
vt 0.998918 0.105947
vt 0.980839 0.105947
vt 0.874662 0.692404
vt 0.902266 0.692404
vt 0.902266 0.714020
vt 0.874662 0.714020
vt 0.541505 0.676695
vt 0.569750 0.676695
vt 0.569750 0.697820
vt 0.541505 0.697820
vt 0.960405 0.052975
vt 0.978484 0.052975
vt 0.978484 0.079461
vt 0.960405 0.079461
vt 0.241905 0.349916
vt 0.241905 0.328730
vt 0.270654 0.328730
vt 0.270654 0.349916
vt 0.305111 0.758141
vt 0.281408 0.758141
vt 0.281408 0.731644
vt 0.305111 0.731644
vt 0.276671 0.708532
vt 0.276671 0.731644
vt 0.250318 0.731644
vt 0.250318 0.708532
vt 0.740738 0.935114
vt 0.740738 0.740296
vt 0.764641 0.740296
vt 0.764641 0.935114
vt 0.694220 0.676695
vt 0.722465 0.676695
vt 0.722465 0.697820
vt 0.694220 0.697820
vt 0.153256 0.981097
vt 0.153256 0.954600
vt 0.176959 0.954600
vt 0.176959 0.981097
vt 0.176959 0.758141
vt 0.153256 0.758141
vt 0.176959 0.731644
vt 0.153256 0.731644
vt 0.725412 0.692404
vt 0.753017 0.692404
vt 0.753017 0.714020
vt 0.725412 0.714020
vt 0.980839 0.026488
vt 0.998918 0.026488
vt 0.998918 0.052974
vt 0.980839 0.052974
vt 0.869970 0.935114
vt 0.869970 0.740296
vt 0.893872 0.740296
vt 0.893872 0.935114
vt 0.955297 0.079461
vt 0.973375 0.079461
vt 0.973375 0.105948
vt 0.955297 0.105948
vt 0.764641 0.714020
vt 0.869970 0.714020
vt 0.764641 0.961390
vt 0.869970 0.961390
vt 0.498417 0.365359
vt 0.472063 0.365359
vt 0.473717 0.349916
vt 0.496762 0.349916
vt 0.975703 0.137980
vt 0.975703 0.177295
vt 0.965514 0.174776
vt 0.965514 0.140499
vt 0.916691 0.081267
vt 0.916691 0.114035
vt 0.904211 0.111978
vt 0.904211 0.083324
vt 0.569750 0.363026
vt 0.541505 0.363026
vt 0.543314 0.348910
vt 0.567941 0.348910
vt 0.276671 0.365359
vt 0.250318 0.365359
vt 0.251972 0.349916
vt 0.275017 0.349916
vt 0.902266 0.371453
vt 0.874662 0.371453
vt 0.876430 0.357011
vt 0.900498 0.357011
vt 0.947342 0.112834
vt 0.947342 0.145601
vt 0.934863 0.143545
vt 0.934863 0.114890
vt 0.996137 0.137015
vt 0.996137 0.176331
vt 0.985948 0.173812
vt 0.985948 0.139534
vt 0.980839 0.138708
vt 0.980839 0.105940
vt 0.993319 0.107997
vt 0.993319 0.136651
vt 0.753017 0.371453
vt 0.725412 0.371453
vt 0.727181 0.357011
vt 0.751248 0.357011
vt 0.270654 0.014157
vt 0.241905 0.014157
vt 0.243710 0.000001
vt 0.268850 0.000001
vt 0.985920 0.138698
vt 0.985920 0.178013
vt 0.975731 0.175494
vt 0.975731 0.141217
vt 0.934863 0.114048
vt 0.934863 0.081281
vt 0.947342 0.083337
vt 0.947342 0.111992
vt 0.924618 0.144383
vt 0.924618 0.183698
vt 0.914428 0.181179
vt 0.914428 0.146902
vt 0.028749 0.014157
vt 0.000000 0.014157
vt 0.001804 0.000001
vt 0.026944 0.000001
vt 0.722465 0.363026
vt 0.694220 0.363026
vt 0.696029 0.348910
vt 0.720656 0.348910
vt 0.498417 0.387556
vt 0.472063 0.387556
vt 0.569750 0.383314
vt 0.541505 0.383314
vt 0.694220 0.383314
vt 0.722465 0.383314
vt 0.028749 0.034505
vt 0.000000 0.034505
vt 0.241905 0.034505
vt 0.270654 0.034505
vt 0.753017 0.392213
vt 0.725412 0.392213
vt 0.874662 0.392213
vt 0.902266 0.392213
vt 0.276671 0.387556
vt 0.250318 0.387556
vt 0.270753 0.328730
vt 0.299501 0.328730
vt 0.299501 0.349916
vt 0.270753 0.349916
vt 0.434664 0.981097
vt 0.434664 0.954600
vt 0.458367 0.954600
vt 0.458367 0.981097
vt 0.248098 0.731643
vt 0.221745 0.731643
vt 0.221745 0.708532
vt 0.248098 0.708532
vt 0.960405 0.026488
vt 0.978484 0.026488
vt 0.978484 0.052975
vt 0.960405 0.052975
vt 0.874662 0.335395
vt 0.902266 0.335395
vt 0.902266 0.357011
vt 0.874662 0.357011
vt 0.541505 0.327786
vt 0.569750 0.327786
vt 0.569750 0.348910
vt 0.541505 0.348910
vt 0.980839 0.052974
vt 0.998918 0.052974
vt 0.998918 0.079461
vt 0.980839 0.079461
vt 0.512658 0.349916
vt 0.512658 0.328730
vt 0.541407 0.328730
vt 0.541407 0.349916
vt 0.458367 0.758141
vt 0.434664 0.758141
vt 0.434664 0.731644
vt 0.458367 0.731644
vt 0.026353 0.708532
vt 0.026353 0.731643
vt 0.000000 0.731643
vt 0.000000 0.708532
vt 0.000000 0.952738
vt 0.000000 0.757920
vt 0.023902 0.757920
vt 0.023902 0.952738
vt 0.694220 0.327786
vt 0.722465 0.327786
vt 0.722465 0.348910
vt 0.694220 0.348910
vt 0.306512 0.981097
vt 0.306512 0.954600
vt 0.330215 0.954600
vt 0.330215 0.981097
vt 0.330215 0.758141
vt 0.306512 0.758141
vt 0.330215 0.731644
vt 0.306512 0.731644
vt 0.725412 0.335395
vt 0.753017 0.335395
vt 0.753017 0.357011
vt 0.725412 0.357011
vt 0.980839 0.000001
vt 0.998918 0.000001
vt 0.998918 0.026488
vt 0.980839 0.026488
vt 0.129232 0.952738
vt 0.129232 0.757920
vt 0.153134 0.757920
vt 0.153134 0.952738
vt 0.960405 0.000001
vt 0.978484 0.000001
vt 0.978484 0.026488
vt 0.960405 0.026488
vt 0.023902 0.731643
vt 0.129232 0.731643
vt 0.023902 0.979014
vt 0.129232 0.979014
vt 0.248098 0.365359
vt 0.221745 0.365359
vt 0.223399 0.349916
vt 0.246444 0.349916
vt 0.965486 0.136174
vt 0.965486 0.175489
vt 0.955297 0.172970
vt 0.955297 0.138693
vt 0.977993 0.105582
vt 0.977993 0.138349
vt 0.965514 0.136293
vt 0.965514 0.107638
vt 0.569750 0.014116
vt 0.541505 0.014116
vt 0.543314 0.000001
vt 0.567941 0.000001
vt 0.026353 0.365359
vt 0.000000 0.365359
vt 0.001654 0.349916
vt 0.024699 0.349916
vt 0.902266 0.014444
vt 0.874662 0.014444
vt 0.876430 0.000001
vt 0.900498 0.000001
vt 0.932017 0.112827
vt 0.932017 0.145594
vt 0.919537 0.143538
vt 0.919537 0.114883
vt 0.914401 0.113666
vt 0.914401 0.152982
vt 0.904211 0.150463
vt 0.904211 0.116185
vt 0.950188 0.137867
vt 0.950188 0.105099
vt 0.962668 0.107156
vt 0.962668 0.135810
vt 0.753017 0.014444
vt 0.725412 0.014444
vt 0.727181 0.000001
vt 0.751248 0.000001
vt 0.541407 0.014157
vt 0.512658 0.014157
vt 0.514462 0.000001
vt 0.539603 0.000001
vt 0.955269 0.144344
vt 0.955269 0.183659
vt 0.945080 0.181140
vt 0.945080 0.146863
vt 0.919537 0.114042
vt 0.919537 0.081274
vt 0.932017 0.083331
vt 0.932017 0.111985
vt 0.939944 0.144390
vt 0.939944 0.183705
vt 0.929754 0.181186
vt 0.929754 0.146909
vt 0.299501 0.014157
vt 0.270753 0.014157
vt 0.272556 0.000001
vt 0.297697 0.000001
vt 0.722465 0.014116
vt 0.694220 0.014116
vt 0.696029 0.000001
vt 0.720656 0.000001
vt 0.248098 0.387556
vt 0.221745 0.387556
vt 0.569750 0.034405
vt 0.541505 0.034405
vt 0.694220 0.034405
vt 0.722465 0.034405
vt 0.299501 0.034505
vt 0.270753 0.034505
vt 0.512658 0.034505
vt 0.541407 0.034505
vt 0.753017 0.035204
vt 0.725412 0.035204
vt 0.874662 0.035204
vt 0.902266 0.035204
vt 0.026353 0.387556
vt 0.000000 0.387556
vt 0.717804 0.941278
vt 0.524348 0.941278
vt 0.524348 0.927761
vt 0.717804 0.927761
vt 0.706770 0.909738
vt 0.534112 0.909738
vt 0.534112 0.729360
vt 0.706770 0.729360
vt 0.716534 0.711337
vt 0.523078 0.711337
vt 0.523078 0.697820
vt 0.716534 0.697820
vt 0.500637 0.723456
vt 0.518342 0.723456
vt 0.518342 0.916912
vt 0.500637 0.916912
vt 0.722539 0.722186
vt 0.740245 0.722186
vt 0.740245 0.915642
vt 0.722539 0.915642
vt 0.534112 0.917288
vt 0.706770 0.917288
vt 0.525631 0.729360
vt 0.525631 0.909738
vt 0.706770 0.721810
vt 0.534112 0.721810
vt 0.715251 0.909738
vt 0.715251 0.729360
vt 0.985948 0.176328
vt 0.987027 0.176328
vt 0.987027 0.195801
vt 0.985948 0.195801
vt 0.988106 0.176328
vt 0.988106 0.195801
vt 0.989185 0.176328
vt 0.989185 0.195801
vt 0.990264 0.176328
vt 0.990264 0.195801
vt 0.991343 0.176328
vt 0.991343 0.195801
vt 0.992423 0.176328
vt 0.992423 0.195801
vt 0.993502 0.176328
vt 0.993502 0.195801
vt 0.994581 0.176328
vt 0.994581 0.195801
vt 0.995660 0.176328
vt 0.995660 0.195801
vt 0.996739 0.176328
vt 0.996739 0.195801
vt 0.997818 0.176328
vt 0.997818 0.195801
vt 0.998897 0.176328
vt 0.998897 0.195801
vt 0.079927 0.006758
vt 0.078277 0.008407
vt 0.076025 0.004325
vt 0.076025 0.009011
vt 0.073772 0.008407
vt 0.072123 0.006758
vt 0.071520 0.004505
vt 0.072123 0.002253
vt 0.073772 0.000604
vt 0.076025 0.000000
vt 0.078277 0.000604
vt 0.079927 0.002253
vt 0.080530 0.004505
vt 0.753928 0.999966
vt 0.604010 1.000000
vt 0.603753 0.993702
vt 0.753671 0.993623
vt 0.748798 0.988778
vt 0.608572 0.988851
vt 0.608369 0.952493
vt 0.748595 0.952420
vt 0.753414 0.947569
vt 0.603496 0.947648
vt 0.603239 0.941305
vt 0.753157 0.941271
vt 0.597699 0.947727
vt 0.597791 0.993781
vt 0.759376 0.947490
vt 0.759468 0.993544
vt 0.919537 0.183695
vt 0.920616 0.183695
vt 0.920616 0.203168
vt 0.919537 0.203168
vt 0.921695 0.183695
vt 0.921695 0.203168
vt 0.922774 0.183695
vt 0.922774 0.203168
vt 0.923853 0.183695
vt 0.923853 0.203168
vt 0.924933 0.183695
vt 0.924933 0.203168
vt 0.926012 0.183695
vt 0.926012 0.203168
vt 0.927091 0.183695
vt 0.927091 0.203168
vt 0.928170 0.183695
vt 0.928170 0.203168
vt 0.929249 0.183695
vt 0.929249 0.203168
vt 0.930328 0.183695
vt 0.930328 0.203168
vt 0.931407 0.183695
vt 0.931407 0.203168
vt 0.932486 0.183695
vt 0.932486 0.203168
vt 0.120795 0.006758
vt 0.119146 0.008407
vt 0.116893 0.004325
vt 0.116893 0.009011
vt 0.114640 0.008407
vt 0.112991 0.006758
vt 0.112388 0.004505
vt 0.112991 0.002253
vt 0.114640 0.000604
vt 0.116893 0.000000
vt 0.119146 0.000604
vt 0.120795 0.002253
vt 0.121398 0.004505
vt 0.970622 0.197483
vt 0.971701 0.197483
vt 0.971701 0.216956
vt 0.970622 0.216956
vt 0.972781 0.197483
vt 0.972781 0.216956
vt 0.973860 0.197483
vt 0.973860 0.216956
vt 0.974939 0.197483
vt 0.974939 0.216956
vt 0.976018 0.197483
vt 0.976018 0.216956
vt 0.977097 0.197483
vt 0.977097 0.216956
vt 0.978176 0.197483
vt 0.978176 0.216956
vt 0.979255 0.197483
vt 0.979255 0.216956
vt 0.980334 0.197483
vt 0.980334 0.216956
vt 0.981414 0.197483
vt 0.981414 0.216956
vt 0.982493 0.197483
vt 0.982493 0.216956
vt 0.983572 0.197483
vt 0.983572 0.216956
vt 0.110578 0.006758
vt 0.108929 0.008407
vt 0.106676 0.004325
vt 0.106676 0.009011
vt 0.104423 0.008407
vt 0.102774 0.006758
vt 0.102171 0.004505
vt 0.102774 0.002253
vt 0.104423 0.000604
vt 0.106676 0.000000
vt 0.108929 0.000604
vt 0.110578 0.002253
vt 0.111181 0.004505
vt 0.934863 0.203129
vt 0.935942 0.203129
vt 0.935942 0.222602
vt 0.934863 0.222602
vt 0.937021 0.203129
vt 0.937021 0.222602
vt 0.938100 0.203129
vt 0.938100 0.222602
vt 0.939179 0.203129
vt 0.939179 0.222602
vt 0.940258 0.203129
vt 0.940258 0.222602
vt 0.941337 0.203129
vt 0.941337 0.222602
vt 0.942416 0.203129
vt 0.942416 0.222602
vt 0.943496 0.203129
vt 0.943496 0.222602
vt 0.944575 0.203129
vt 0.944575 0.222602
vt 0.945654 0.203129
vt 0.945654 0.222602
vt 0.946733 0.203129
vt 0.946733 0.222602
vt 0.947812 0.203129
vt 0.947812 0.222602
vt 0.059492 0.006758
vt 0.057843 0.008407
vt 0.055591 0.004325
vt 0.055591 0.009011
vt 0.053338 0.008407
vt 0.051689 0.006758
vt 0.051085 0.004505
vt 0.051689 0.002253
vt 0.053338 0.000604
vt 0.055591 0.000000
vt 0.057843 0.000604
vt 0.059492 0.002253
vt 0.060096 0.004505
vt 0.919537 0.203168
vt 0.920616 0.203168
vt 0.920616 0.222641
vt 0.919537 0.222641
vt 0.921695 0.203168
vt 0.921695 0.222641
vt 0.922774 0.203168
vt 0.922774 0.222641
vt 0.923853 0.203168
vt 0.923853 0.222641
vt 0.924933 0.203168
vt 0.924933 0.222641
vt 0.926012 0.203168
vt 0.926012 0.222641
vt 0.927091 0.203168
vt 0.927091 0.222641
vt 0.928170 0.203168
vt 0.928170 0.222641
vt 0.929249 0.203168
vt 0.929249 0.222641
vt 0.930328 0.203168
vt 0.930328 0.222641
vt 0.931407 0.203168
vt 0.931407 0.222641
vt 0.932486 0.203168
vt 0.932486 0.222641
vt 0.141229 0.006758
vt 0.139580 0.008407
vt 0.137327 0.004325
vt 0.137327 0.009011
vt 0.135075 0.008407
vt 0.133426 0.006758
vt 0.132822 0.004505
vt 0.133426 0.002253
vt 0.135075 0.000604
vt 0.137327 0.000000
vt 0.139580 0.000604
vt 0.141229 0.002253
vt 0.141833 0.004505
vt 0.939971 0.183656
vt 0.941050 0.183656
vt 0.941050 0.203129
vt 0.939971 0.203129
vt 0.942129 0.183656
vt 0.942129 0.203129
vt 0.943208 0.183656
vt 0.943208 0.203129
vt 0.944288 0.183656
vt 0.944288 0.203129
vt 0.945367 0.183656
vt 0.945367 0.203129
vt 0.946446 0.183656
vt 0.946446 0.203129
vt 0.947525 0.183656
vt 0.947525 0.203129
vt 0.948604 0.183656
vt 0.948604 0.203129
vt 0.949683 0.183656
vt 0.949683 0.203129
vt 0.950762 0.183656
vt 0.950762 0.203129
vt 0.951841 0.183656
vt 0.951841 0.203129
vt 0.952921 0.183656
vt 0.952921 0.203129
vt 0.151446 0.006758
vt 0.149797 0.008407
vt 0.147544 0.004325
vt 0.147544 0.009011
vt 0.145292 0.008407
vt 0.143643 0.006758
vt 0.143039 0.004505
vt 0.143643 0.002253
vt 0.145292 0.000604
vt 0.147544 0.000000
vt 0.149797 0.000604
vt 0.151446 0.002253
vt 0.152050 0.004505
vt 0.955297 0.176049
vt 0.956376 0.176049
vt 0.956376 0.195522
vt 0.955297 0.195522
vt 0.957455 0.176049
vt 0.957455 0.195522
vt 0.958534 0.176049
vt 0.958534 0.195522
vt 0.959613 0.176049
vt 0.959613 0.195522
vt 0.960692 0.176049
vt 0.960692 0.195522
vt 0.961771 0.176049
vt 0.961771 0.195522
vt 0.962851 0.176049
vt 0.962851 0.195522
vt 0.963930 0.176049
vt 0.963930 0.195522
vt 0.965009 0.176049
vt 0.965009 0.195522
vt 0.966088 0.176049
vt 0.966088 0.195522
vt 0.967167 0.176049
vt 0.967167 0.195522
vt 0.968246 0.176049
vt 0.968246 0.195522
vt 0.090144 0.006758
vt 0.088495 0.008407
vt 0.086242 0.004325
vt 0.086242 0.009011
vt 0.083989 0.008407
vt 0.082340 0.006758
vt 0.081737 0.004505
vt 0.082340 0.002253
vt 0.083989 0.000604
vt 0.086242 0.000000
vt 0.088495 0.000604
vt 0.090144 0.002253
vt 0.090747 0.004505
vt 0.904211 0.182452
vt 0.905290 0.182452
vt 0.905290 0.201925
vt 0.904211 0.201925
vt 0.906370 0.182452
vt 0.906370 0.201925
vt 0.907449 0.182452
vt 0.907449 0.201925
vt 0.908528 0.182452
vt 0.908528 0.201925
vt 0.909607 0.182452
vt 0.909607 0.201925
vt 0.910686 0.182452
vt 0.910686 0.201925
vt 0.911765 0.182452
vt 0.911765 0.201925
vt 0.912844 0.182452
vt 0.912844 0.201925
vt 0.913923 0.182452
vt 0.913923 0.201925
vt 0.915003 0.182452
vt 0.915003 0.201925
vt 0.916082 0.182452
vt 0.916082 0.201925
vt 0.917161 0.182452
vt 0.917161 0.201925
vt 0.100361 0.006758
vt 0.098712 0.008407
vt 0.096459 0.004325
vt 0.096459 0.009011
vt 0.094206 0.008407
vt 0.092557 0.006758
vt 0.091954 0.004505
vt 0.092557 0.002253
vt 0.094206 0.000604
vt 0.096459 0.000000
vt 0.098712 0.000604
vt 0.100361 0.002253
vt 0.100964 0.004505
vt 0.904211 0.201925
vt 0.905290 0.201925
vt 0.905290 0.221398
vt 0.904211 0.221398
vt 0.906370 0.201925
vt 0.906370 0.221398
vt 0.907449 0.201925
vt 0.907449 0.221398
vt 0.908528 0.201925
vt 0.908528 0.221398
vt 0.909607 0.201925
vt 0.909607 0.221398
vt 0.910686 0.201925
vt 0.910686 0.221398
vt 0.911765 0.201925
vt 0.911765 0.221398
vt 0.912844 0.201925
vt 0.912844 0.221398
vt 0.913923 0.201925
vt 0.913923 0.221398
vt 0.915003 0.201925
vt 0.915003 0.221398
vt 0.916082 0.201925
vt 0.916082 0.221398
vt 0.917161 0.201925
vt 0.917161 0.221398
vt 0.131012 0.006758
vt 0.129363 0.008407
vt 0.127110 0.004325
vt 0.127110 0.009011
vt 0.124858 0.008407
vt 0.123209 0.006758
vt 0.122605 0.004505
vt 0.123209 0.002253
vt 0.124858 0.000604
vt 0.127110 0.000000
vt 0.129363 0.000604
vt 0.131012 0.002253
vt 0.131616 0.004505
vt 0.970622 0.178010
vt 0.971701 0.178010
vt 0.971701 0.197483
vt 0.970622 0.197483
vt 0.972781 0.178010
vt 0.972781 0.197483
vt 0.973860 0.178010
vt 0.973860 0.197483
vt 0.974939 0.178010
vt 0.974939 0.197483
vt 0.976018 0.178010
vt 0.976018 0.197483
vt 0.977097 0.178010
vt 0.977097 0.197483
vt 0.978176 0.178010
vt 0.978176 0.197483
vt 0.979255 0.178010
vt 0.979255 0.197483
vt 0.980334 0.178010
vt 0.980334 0.197483
vt 0.981414 0.178010
vt 0.981414 0.197483
vt 0.982493 0.178010
vt 0.982493 0.197483
vt 0.983572 0.178010
vt 0.983572 0.197483
vt 0.049275 0.006758
vt 0.047626 0.008407
vt 0.045374 0.004325
vt 0.045374 0.009011
vt 0.043121 0.008407
vt 0.041472 0.006758
vt 0.040868 0.004505
vt 0.041472 0.002253
vt 0.043121 0.000604
vt 0.045374 0.000000
vt 0.047626 0.000604
vt 0.049275 0.002253
vt 0.049879 0.004505
vt 0.955297 0.195522
vt 0.956376 0.195522
vt 0.956376 0.214995
vt 0.955297 0.214995
vt 0.957455 0.195522
vt 0.957455 0.214995
vt 0.958534 0.195522
vt 0.958534 0.214995
vt 0.959613 0.195522
vt 0.959613 0.214995
vt 0.960692 0.195522
vt 0.960692 0.214995
vt 0.961771 0.195522
vt 0.961771 0.214995
vt 0.962851 0.195522
vt 0.962851 0.214995
vt 0.963930 0.195522
vt 0.963930 0.214995
vt 0.965009 0.195522
vt 0.965009 0.214995
vt 0.966088 0.195522
vt 0.966088 0.214995
vt 0.967167 0.195522
vt 0.967167 0.214995
vt 0.968246 0.195522
vt 0.968246 0.214995
vt 0.039058 0.006758
vt 0.037409 0.008407
vt 0.035157 0.004325
vt 0.035157 0.009011
vt 0.032904 0.008407
vt 0.031255 0.006758
vt 0.030651 0.004505
vt 0.031255 0.002253
vt 0.032904 0.000604
vt 0.035157 0.000000
vt 0.037409 0.000604
vt 0.039058 0.002253
vt 0.039662 0.004505
vt 0.985948 0.195801
vt 0.987027 0.195801
vt 0.987027 0.215274
vt 0.985948 0.215274
vt 0.988106 0.195801
vt 0.988106 0.215274
vt 0.989185 0.195801
vt 0.989185 0.215274
vt 0.990264 0.195801
vt 0.990264 0.215274
vt 0.991344 0.195801
vt 0.991344 0.215274
vt 0.992423 0.195801
vt 0.992423 0.215274
vt 0.993502 0.195801
vt 0.993502 0.215274
vt 0.994581 0.195801
vt 0.994581 0.215274
vt 0.995660 0.195801
vt 0.995660 0.215274
vt 0.996739 0.195801
vt 0.996739 0.215274
vt 0.997818 0.195801
vt 0.997818 0.215274
vt 0.998897 0.195801
vt 0.998897 0.215274
vt 0.069709 0.006758
vt 0.068060 0.008407
vt 0.065808 0.004325
vt 0.065808 0.009011
vt 0.063555 0.008407
vt 0.061906 0.006758
vt 0.061302 0.004505
vt 0.061906 0.002253
vt 0.063555 0.000604
vt 0.065808 0.000000
vt 0.068060 0.000604
vt 0.069709 0.002253
vt 0.070313 0.004505
vn 0.000000 1.000000 0.000000
vn 0.000000 1.000000 0.000000
vn 0.000000 1.000000 0.000000
vn 0.000000 1.000000 0.000000
vn 0.000000 0.000000 -1.000000
vn -0.000000 0.000000 -1.000000
vn -0.000001 0.000000 -1.000000
vn 0.000000 0.000000 -1.000000
vn 0.000000 -1.000000 0.000000
vn 0.000000 -1.000000 0.000000
vn 0.000000 -1.000000 0.000000
vn 0.000000 -1.000000 0.000000
vn 1.000000 0.000000 0.000000
vn 1.000000 0.000000 0.000000
vn 1.000000 0.000000 0.000000
vn 1.000000 0.000000 0.000000
vn -1.000000 0.000000 0.000000
vn -1.000000 0.000000 0.000000
vn -1.000000 0.000000 0.000000
vn -1.000000 0.000000 0.000000
vn 0.000000 0.000000 -1.000000
vn -0.000000 0.000000 -1.000000
vn -0.000001 0.000000 -1.000000
vn 0.000000 0.000000 -1.000000
vn 0.000000 0.000000 1.000000
vn 0.000000 0.000000 1.000000
vn 0.000000 0.000000 1.000000
vn 0.000000 0.000000 1.000000
vn 0.000000 1.000000 0.000000
vn 0.000000 1.000000 0.000000
vn 0.000000 1.000000 0.000000
vn 0.000000 1.000000 0.000000
vn 0.000000 0.000000 -1.000000
vn 0.000000 0.000000 -1.000000
vn 0.000000 0.000000 -1.000000
vn 0.000000 0.000000 -1.000000
vn 0.000000 -1.000000 0.000000
vn 0.000000 -1.000000 0.000000
vn 0.000000 -1.000000 0.000000
vn 0.000000 -1.000000 0.000000
vn 1.000000 0.000000 0.000000
vn 1.000000 0.000000 0.000000
vn 1.000000 0.000000 0.000000
vn 1.000000 0.000000 0.000000
vn -1.000000 0.000000 0.000000
vn -1.000000 0.000000 0.000000
vn -1.000000 0.000000 0.000000
vn -1.000000 0.000000 0.000000
vn 0.000000 -1.000000 0.000000
vn 0.000000 -1.000000 0.000000
vn 0.000000 -1.000000 0.000000
vn 0.000000 -1.000000 0.000000
vn 0.000000 0.000000 1.000000
vn 0.000000 0.000000 1.000000
vn 0.000000 0.000000 1.000000
vn 0.000000 0.000000 1.000000
vn 0.000000 1.000000 0.000000
vn 0.000000 1.000000 0.000000
vn 0.000000 1.000000 0.000000
vn 0.000000 1.000000 0.000000
vn 0.000000 0.000000 -1.000000
vn 0.000000 0.000000 -1.000000
vn 0.000000 0.000000 -1.000000
vn 0.000000 0.000000 -1.000000
vn 0.000000 -1.000000 0.000000
vn 0.000000 -1.000000 0.000000
vn 0.000000 -1.000000 0.000000
vn 0.000000 -1.000000 0.000000
vn 0.000000 0.000000 1.000000
vn 0.000000 0.000000 1.000000
vn 0.000000 0.000000 1.000000
vn 0.000000 0.000000 1.000000
vn 0.000000 1.000000 0.000000
vn 0.000000 1.000000 0.000000
vn 0.000000 1.000000 0.000000
vn 0.000000 1.000000 0.000000
vn 0.000000 0.000000 -1.000000
vn 0.000000 0.000000 -1.000000
vn 0.000000 0.000000 -1.000000
vn 0.000000 0.000000 -1.000000
vn -1.000000 0.000000 0.000000
vn -1.000000 0.000000 0.000000
vn -1.000000 0.000000 0.000000
vn -1.000000 0.000000 0.000000
vn 0.000000 1.000000 0.000000
vn 0.000000 1.000000 0.000000
vn 0.000000 1.000000 0.000000
vn 0.000000 1.000000 0.000000
vn 0.000000 1.000000 0.000000
vn 0.000000 1.000000 0.000000
vn 0.000000 1.000000 0.000000
vn 0.000000 1.000000 0.000000
vn 0.000000 1.000000 0.000000
vn 0.000000 1.000000 0.000000
vn 0.000000 1.000000 0.000000
vn 0.000000 1.000000 0.000000
vn 1.000000 0.000000 0.000000
vn 1.000000 0.000000 0.000000
vn 1.000000 0.000000 0.000000
vn 1.000000 0.000000 0.000000
vn 0.000000 -1.000000 0.000000
vn 0.000000 -1.000000 0.000000
vn 0.000000 -1.000000 0.000000
vn 0.000000 -1.000000 0.000000
vn 0.000000 -1.000000 0.000000
vn 0.000000 -1.000000 0.000000
vn 0.000000 -1.000000 0.000000
vn 0.000000 -1.000000 0.000000
vn 0.000000 -1.000000 0.000000
vn 0.000000 -1.000000 0.000000
vn 0.000000 -1.000000 0.000000
vn 0.000000 -1.000000 0.000000
vn -1.000000 0.000000 0.000000
vn -1.000000 0.000000 0.000000
vn -1.000000 0.000000 0.000000
vn -1.000000 0.000000 0.000000
vn 0.000000 1.000000 0.000000
vn 0.000000 1.000000 0.000000
vn 0.000000 1.000000 0.000000
vn 0.000000 1.000000 0.000000
vn 0.000000 1.000000 0.000000
vn 0.000000 1.000000 0.000000
vn 0.000000 1.000000 0.000000
vn 0.000000 1.000000 0.000000
vn 0.000000 1.000000 0.000000
vn 0.000000 1.000000 0.000000
vn 0.000000 1.000000 0.000000
vn 0.000000 1.000000 0.000000
vn 1.000000 0.000000 0.000000
vn 1.000000 0.000000 0.000000
vn 1.000000 0.000000 0.000000
vn 1.000000 0.000000 0.000000
vn 0.000000 -1.000000 0.000000
vn 0.000000 -1.000000 0.000000
vn 0.000000 -1.000000 0.000000
vn 0.000000 -1.000000 0.000000
vn 0.000000 -1.000000 0.000000
vn 0.000000 -1.000000 0.000000
vn 0.000000 -1.000000 0.000000
vn 0.000000 -1.000000 0.000000
vn 0.000000 -1.000000 0.000000
vn 0.000000 -1.000000 0.000000
vn 0.000000 -1.000000 0.000000
vn 0.000000 -1.000000 0.000000
vn 0.000000 -0.036516 -0.999333
vn 0.000000 -0.006439 -0.999979
vn 0.000000 -0.098397 -0.995147
vn 0.000000 -0.098397 -0.995147
vn 0.995147 -0.098397 0.000000
vn 0.995147 -0.098397 0.000000
vn 0.995147 -0.098397 0.000000
vn 0.995147 -0.098397 0.000000
vn 0.000000 -0.098397 0.995147
vn 0.000000 -0.098397 0.995147
vn 0.000000 -0.098397 0.995147
vn 0.000000 -0.098397 0.995147
vn -0.999958 -0.009159 0.000000
vn -0.999382 -0.035144 0.000000
vn -0.995147 -0.098397 0.000000
vn -0.995147 -0.098397 0.000000
vn 0.000000 -0.006439 -0.999979
vn 0.000000 -0.036516 -0.999333
vn 0.000000 -0.098397 -0.995147
vn 0.000000 -0.098397 -0.995147
vn 0.999382 -0.035144 0.000000
vn 0.999958 -0.009159 0.000000
vn 0.995147 -0.098397 0.000000
vn 0.995147 -0.098397 0.000000
vn 0.000000 -0.098397 0.995147
vn 0.000000 -0.098397 0.995147
vn 0.000000 -0.098397 0.995147
vn 0.000000 -0.098397 0.995147
vn -0.995147 -0.098397 0.000000
vn -0.995147 -0.098397 0.000000
vn -0.995147 -0.098397 0.000000
vn -0.995147 -0.098397 0.000000
vn 0.000000 -0.098397 -0.995147
vn 0.000000 -0.098397 -0.995147
vn 0.000000 -0.098397 -0.995147
vn 0.000000 -0.098397 -0.995147
vn 0.999958 -0.009159 0.000000
vn 0.999382 -0.035144 0.000000
vn 0.995147 -0.098397 0.000000
vn 0.995147 -0.098397 0.000000
vn 0.000000 -0.036516 0.999333
vn 0.000000 -0.006439 0.999979
vn 0.000000 -0.098397 0.995147
vn 0.000000 -0.098397 0.995147
vn -0.995147 -0.098397 0.000000
vn -0.995147 -0.098397 0.000000
vn -0.995147 -0.098397 0.000000
vn -0.995147 -0.098397 0.000000
vn 0.000000 -0.098397 -0.995147
vn 0.000000 -0.098397 -0.995147
vn 0.000000 -0.098397 -0.995147
vn 0.000000 -0.098397 -0.995147
vn 0.995147 -0.098397 0.000000
vn 0.995147 -0.098397 0.000000
vn 0.995147 -0.098397 0.000000
vn 0.995147 -0.098397 0.000000
vn 0.000000 -0.006439 0.999979
vn 0.000000 -0.036516 0.999333
vn 0.000000 -0.098397 0.995147
vn 0.000000 -0.098397 0.995147
vn -0.999382 -0.035144 0.000000
vn -0.999958 -0.009159 0.000000
vn -0.995147 -0.098397 0.000000
vn -0.995147 -0.098397 0.000000
vn 0.000000 0.000000 -1.000000
vn 0.000000 0.000000 -1.000000
vn 0.000000 -0.006439 -0.999979
vn 0.000000 -0.036516 -0.999333
vn -0.999382 -0.035144 0.000000
vn -0.999958 -0.009159 0.000000
vn -1.000000 0.000000 0.000000
vn -1.000000 0.000000 0.000000
vn -0.999958 -0.009159 0.000000
vn -0.999958 -0.009159 0.000000
vn -1.000000 0.000000 0.000000
vn -1.000000 0.000000 0.000000
vn -0.999958 -0.009159 0.000000
vn -0.999382 -0.035144 0.000000
vn -1.000000 0.000000 0.000000
vn -1.000000 0.000000 0.000000
vn 0.000000 -0.036516 0.999333
vn 0.000000 -0.006439 0.999979
vn 0.000000 0.000000 1.000000
vn 0.000000 0.000000 1.000000
vn 0.000000 0.000000 1.000000
vn 0.000000 0.000000 1.000000
vn 0.000000 -0.006439 0.999979
vn 0.000000 -0.006439 0.999979
vn 0.000000 0.000000 1.000000
vn 0.000000 0.000000 1.000000
vn 0.000000 -0.006439 0.999979
vn 0.000000 -0.036516 0.999333
vn 0.999382 -0.035144 0.000000
vn 0.999958 -0.009159 0.000000
vn 1.000000 0.000000 0.000000
vn 1.000000 0.000000 0.000000
vn 0.999958 -0.009159 0.000000
vn 0.999958 -0.009159 0.000000
vn 1.000000 0.000000 0.000000
vn 1.000000 0.000000 0.000000
vn 0.999958 -0.009159 0.000000
vn 0.999382 -0.035144 0.000000
vn 1.000000 0.000000 0.000000
vn 1.000000 0.000000 0.000000
vn 0.000000 -0.006439 -0.999979
vn 0.000000 0.000000 -1.000000
vn 0.000000 0.000000 -1.000000
vn 0.000000 -0.036516 -0.999333
vn 0.000000 -0.006439 -0.999979
vn 0.000000 0.000000 -1.000000
vn 0.000000 0.000000 -1.000000
vn 0.000000 -0.006439 -0.999979
vn 0.000000 0.000000 1.000000
vn 0.000000 0.000000 1.000000
vn 0.000000 0.000000 1.000000
vn 0.000000 0.000000 1.000000
vn -1.000000 0.000000 0.000000
vn -1.000000 0.000000 0.000000
vn -1.000000 0.000000 0.000000
vn -1.000000 0.000000 0.000000
vn -1.000000 0.000000 0.000000
vn -1.000000 0.000000 0.000000
vn -1.000000 0.000000 0.000000
vn -1.000000 0.000000 0.000000
vn -1.000000 0.000000 0.000000
vn -1.000000 0.000000 0.000000
vn -1.000000 0.000000 0.000000
vn -1.000000 0.000000 0.000000
vn 0.000000 0.000000 -1.000000
vn 0.000000 0.000000 -1.000000
vn 0.000000 0.000000 -1.000000
vn 0.000000 0.000000 -1.000000
vn 0.000000 0.000000 -1.000000
vn 0.000000 0.000000 -1.000000
vn 0.000000 0.000000 -1.000000
vn 0.000000 0.000000 -1.000000
vn 0.000000 0.000000 -1.000000
vn 0.000000 0.000000 -1.000000
vn 0.000000 0.000000 -1.000000
vn 0.000000 0.000000 -1.000000
vn 1.000000 0.000000 0.000000
vn 1.000000 0.000000 0.000000
vn 1.000000 0.000000 0.000000
vn 1.000000 0.000000 0.000000
vn 1.000000 0.000000 0.000000
vn 1.000000 0.000000 0.000000
vn 1.000000 0.000000 0.000000
vn 1.000000 0.000000 0.000000
vn 1.000000 0.000000 0.000000
vn 1.000000 0.000000 0.000000
vn 1.000000 0.000000 0.000000
vn 1.000000 0.000000 0.000000
vn 0.000000 0.000000 1.000000
vn 0.000000 0.000000 1.000000
vn 0.000000 0.000000 1.000000
vn 0.000000 0.000000 1.000000
vn 0.000000 0.000000 1.000000
vn 0.000000 0.000000 1.000000
vn 0.000000 0.000000 1.000000
vn 0.000000 0.000000 1.000000
vn 0.000000 0.000000 1.000000
vn 0.000000 0.000000 1.000000
vn 0.000000 0.000000 1.000000
vn 0.000000 0.000000 1.000000
vn 0.000000 1.000000 0.000000
vn 0.000000 1.000000 0.000000
vn 0.000000 1.000000 0.000000
vn 0.000000 1.000000 0.000000
vn 0.000000 0.000000 -1.000000
vn 0.000000 0.000000 -1.000000
vn 0.000000 0.000000 -1.000000
vn 0.000000 0.000000 -1.000000
vn 0.000000 -1.000000 0.000000
vn 0.000000 -1.000000 0.000000
vn 0.000000 -1.000000 0.000000
vn 0.000000 -1.000000 0.000000
vn 1.000000 0.000000 0.000000
vn 1.000000 0.000000 0.000000
vn 1.000000 0.000000 0.000000
vn 1.000000 0.000000 0.000000
vn -1.000000 0.000000 0.000000
vn -1.000000 0.000000 0.000000
vn -1.000000 0.000000 0.000000
vn -1.000000 0.000000 0.000000
vn 0.000000 -1.000000 0.000000
vn 0.000000 -1.000000 0.000000
vn 0.000000 -1.000000 0.000000
vn 0.000000 -1.000000 0.000000
vn 0.000000 0.000000 1.000000
vn 0.000000 0.000000 1.000000
vn 0.000000 0.000000 1.000000
vn 0.000000 0.000000 1.000000
vn 0.000000 1.000000 0.000000
vn 0.000000 1.000000 0.000000
vn 0.000000 1.000000 0.000000
vn 0.000000 1.000000 0.000000
vn 0.000000 0.000000 -1.000000
vn 0.000000 0.000000 -1.000000
vn 0.000000 0.000000 -1.000000
vn 0.000000 0.000000 -1.000000
vn 0.000000 -1.000000 0.000000
vn 0.000000 -1.000000 0.000000
vn 0.000000 -1.000000 0.000000
vn 0.000000 -1.000000 0.000000
vn 0.000000 0.000000 1.000000
vn 0.000000 0.000000 1.000000
vn 0.000000 0.000000 1.000000
vn 0.000000 0.000000 1.000000
vn 0.000000 1.000000 0.000000
vn 0.000000 1.000000 0.000000
vn 0.000000 1.000000 0.000000
vn 0.000000 1.000000 0.000000
vn 0.000000 0.000000 -1.000000
vn 0.000000 0.000000 -1.000000
vn 0.000000 0.000000 -1.000000
vn 0.000000 0.000000 -1.000000
vn -1.000000 0.000000 0.000000
vn -1.000000 0.000000 0.000000
vn -1.000000 0.000000 0.000000
vn -1.000000 0.000000 0.000000
vn 0.000000 1.000000 0.000000
vn 0.000000 1.000000 0.000000
vn 0.000000 1.000000 0.000000
vn 0.000000 1.000000 0.000000
vn 0.000000 1.000000 0.000000
vn 0.000000 1.000000 0.000000
vn 0.000000 1.000000 0.000000
vn 0.000000 1.000000 0.000000
vn 0.000000 1.000000 0.000000
vn 0.000000 1.000000 0.000000
vn 0.000000 1.000000 0.000000
vn 0.000000 1.000000 0.000000
vn 1.000000 0.000000 0.000000
vn 1.000000 0.000000 0.000000
vn 1.000000 0.000000 0.000000
vn 1.000000 0.000000 0.000000
vn 0.000000 -1.000000 0.000000
vn 0.000000 -1.000000 0.000000
vn 0.000000 -1.000000 0.000000
vn 0.000000 -1.000000 0.000000
vn 0.000000 -1.000000 0.000000
vn 0.000000 -1.000000 0.000000
vn 0.000000 -1.000000 0.000000
vn 0.000000 -1.000000 0.000000
vn 0.000000 -1.000000 0.000000
vn 0.000000 -1.000000 0.000000
vn 0.000000 -1.000000 0.000000
vn 0.000000 -1.000000 0.000000
vn -1.000000 0.000000 0.000000
vn -1.000000 0.000000 0.000000
vn -1.000000 0.000000 0.000000
vn -1.000000 0.000000 0.000000
vn 0.000000 1.000000 0.000000
vn 0.000000 1.000000 0.000000
vn 0.000000 1.000000 0.000000
vn 0.000000 1.000000 0.000000
vn 0.000000 1.000000 0.000000
vn 0.000000 1.000000 0.000000
vn 0.000000 1.000000 0.000000
vn 0.000000 1.000000 0.000000
vn 0.000000 1.000000 0.000000
vn 0.000000 1.000000 0.000000
vn 0.000000 1.000000 0.000000
vn 0.000000 1.000000 0.000000
vn 1.000000 0.000000 0.000000
vn 1.000000 0.000000 0.000000
vn 1.000000 0.000000 0.000000
vn 1.000000 0.000000 0.000000
vn 0.000000 -1.000000 0.000000
vn 0.000000 -1.000000 0.000000
vn 0.000000 -1.000000 0.000000
vn 0.000000 -1.000000 0.000000
vn 0.000000 -1.000000 0.000000
vn 0.000000 -1.000000 0.000000
vn 0.000000 -1.000000 0.000000
vn 0.000000 -1.000000 0.000000
vn 0.000000 -1.000000 0.000000
vn 0.000000 -1.000000 0.000000
vn 0.000000 -1.000000 0.000000
vn 0.000000 -1.000000 0.000000
vn 0.000000 -0.036516 -0.999333
vn 0.000000 -0.006439 -0.999979
vn 0.000000 -0.098397 -0.995147
vn 0.000000 -0.098397 -0.995147
vn 0.995147 -0.098397 0.000000
vn 0.995147 -0.098397 0.000000
vn 0.995147 -0.098397 0.000000
vn 0.995147 -0.098397 0.000000
vn 0.000000 -0.098397 0.995147
vn 0.000000 -0.098397 0.995147
vn 0.000000 -0.098397 0.995147
vn 0.000000 -0.098397 0.995147
vn -0.999958 -0.009159 0.000000
vn -0.999382 -0.035144 0.000000
vn -0.995147 -0.098397 0.000000
vn -0.995147 -0.098397 0.000000
vn 0.000000 -0.006439 -0.999979
vn 0.000000 -0.036516 -0.999333
vn 0.000000 -0.098397 -0.995147
vn 0.000000 -0.098397 -0.995147
vn 0.999382 -0.035144 0.000000
vn 0.999958 -0.009159 0.000000
vn 0.995147 -0.098397 0.000000
vn 0.995147 -0.098397 0.000000
vn 0.000000 -0.098397 0.995147
vn 0.000000 -0.098397 0.995147
vn 0.000000 -0.098397 0.995147
vn 0.000000 -0.098397 0.995147
vn -0.995147 -0.098397 0.000000
vn -0.995147 -0.098397 0.000000
vn -0.995147 -0.098397 0.000000
vn -0.995147 -0.098397 0.000000
vn 0.000000 -0.098397 -0.995147
vn 0.000000 -0.098397 -0.995147
vn 0.000000 -0.098397 -0.995147
vn 0.000000 -0.098397 -0.995147
vn 0.999958 -0.009159 0.000000
vn 0.999382 -0.035144 0.000000
vn 0.995147 -0.098397 0.000000
vn 0.995147 -0.098397 0.000000
vn 0.000000 -0.036516 0.999333
vn 0.000000 -0.006439 0.999979
vn 0.000000 -0.098397 0.995147
vn 0.000000 -0.098397 0.995147
vn -0.995147 -0.098397 0.000000
vn -0.995147 -0.098397 0.000000
vn -0.995147 -0.098397 0.000000
vn -0.995147 -0.098397 0.000000
vn 0.000000 -0.098397 -0.995147
vn 0.000000 -0.098397 -0.995147
vn 0.000000 -0.098397 -0.995147
vn 0.000000 -0.098397 -0.995147
vn 0.995147 -0.098397 0.000000
vn 0.995147 -0.098397 0.000000
vn 0.995147 -0.098397 0.000000
vn 0.995147 -0.098397 0.000000
vn 0.000000 -0.006439 0.999979
vn 0.000000 -0.036516 0.999333
vn 0.000000 -0.098397 0.995147
vn 0.000000 -0.098397 0.995147
vn -0.999382 -0.035144 0.000000
vn -0.999958 -0.009159 0.000000
vn -0.995147 -0.098397 0.000000
vn -0.995147 -0.098397 0.000000
vn 0.000000 0.000000 -1.000000
vn 0.000000 0.000000 -1.000000
vn 0.000000 -0.006439 -0.999979
vn 0.000000 -0.036516 -0.999333
vn -0.999382 -0.035144 0.000000
vn -0.999958 -0.009159 0.000000
vn -1.000000 0.000000 0.000000
vn -1.000000 0.000000 0.000000
vn -0.999958 -0.009159 0.000000
vn -0.999958 -0.009159 0.000000
vn -1.000000 0.000000 0.000000
vn -1.000000 0.000000 0.000000
vn -0.999958 -0.009159 0.000000
vn -0.999382 -0.035144 0.000000
vn -1.000000 0.000000 0.000000
vn -1.000000 0.000000 0.000000
vn 0.000000 -0.036516 0.999333
vn 0.000000 -0.006439 0.999979
vn 0.000000 0.000000 1.000000
vn 0.000000 0.000000 1.000000
vn 0.000000 0.000000 1.000000
vn 0.000000 0.000000 1.000000
vn 0.000000 -0.006439 0.999979
vn 0.000000 -0.006439 0.999979
vn 0.000000 0.000000 1.000000
vn 0.000000 0.000000 1.000000
vn 0.000000 -0.006439 0.999979
vn 0.000000 -0.036516 0.999333
vn 0.999382 -0.035144 0.000000
vn 0.999958 -0.009159 0.000000
vn 1.000000 0.000000 0.000000
vn 1.000000 0.000000 0.000000
vn 0.999958 -0.009159 0.000000
vn 0.999958 -0.009159 0.000000
vn 1.000000 0.000000 0.000000
vn 1.000000 0.000000 0.000000
vn 0.999958 -0.009159 0.000000
vn 0.999382 -0.035144 0.000000
vn 1.000000 0.000000 0.000000
vn 1.000000 0.000000 0.000000
vn 0.000000 -0.006439 -0.999979
vn 0.000000 0.000000 -1.000000
vn 0.000000 0.000000 -1.000000
vn 0.000000 -0.036516 -0.999333
vn 0.000000 -0.006439 -0.999979
vn 0.000000 0.000000 -1.000000
vn 0.000000 0.000000 -1.000000
vn 0.000000 -0.006439 -0.999979
vn 0.000000 0.000000 1.000000
vn 0.000000 0.000000 1.000000
vn 0.000000 0.000000 1.000000
vn 0.000000 0.000000 1.000000
vn -1.000000 0.000000 0.000000
vn -1.000000 0.000000 0.000000
vn -1.000000 0.000000 0.000000
vn -1.000000 0.000000 0.000000
vn -1.000000 0.000000 0.000000
vn -1.000000 0.000000 0.000000
vn -1.000000 0.000000 0.000000
vn -1.000000 0.000000 0.000000
vn -1.000000 0.000000 0.000000
vn -1.000000 0.000000 0.000000
vn -1.000000 0.000000 0.000000
vn -1.000000 0.000000 0.000000
vn 0.000000 0.000000 -1.000000
vn 0.000000 0.000000 -1.000000
vn 0.000000 0.000000 -1.000000
vn 0.000000 0.000000 -1.000000
vn 0.000000 0.000000 -1.000000
vn 0.000000 0.000000 -1.000000
vn 0.000000 0.000000 -1.000000
vn 0.000000 0.000000 -1.000000
vn 0.000000 0.000000 -1.000000
vn 0.000000 0.000000 -1.000000
vn 0.000000 0.000000 -1.000000
vn 0.000000 0.000000 -1.000000
vn 1.000000 0.000000 0.000000
vn 1.000000 0.000000 0.000000
vn 1.000000 0.000000 0.000000
vn 1.000000 0.000000 0.000000
vn 1.000000 0.000000 0.000000
vn 1.000000 0.000000 0.000000
vn 1.000000 0.000000 0.000000
vn 1.000000 0.000000 0.000000
vn 1.000000 0.000000 0.000000
vn 1.000000 0.000000 0.000000
vn 1.000000 0.000000 0.000000
vn 1.000000 0.000000 0.000000
vn 0.000000 0.000000 1.000000
vn 0.000000 0.000000 1.000000
vn 0.000000 0.000000 1.000000
vn 0.000000 0.000000 1.000000
vn 0.000000 0.000000 1.000000
vn 0.000000 0.000000 1.000000
vn 0.000000 0.000000 1.000000
vn 0.000000 0.000000 1.000000
vn 0.000000 1.000000 0.000000
vn 0.000000 1.000000 0.000000
vn 0.000000 1.000000 0.000000
vn 0.000000 1.000000 0.000000
vn 0.000000 0.000000 -1.000000
vn 0.000000 0.000000 -1.000000
vn 0.000000 0.000000 -1.000000
vn 0.000000 0.000000 -1.000000
vn 0.000000 -1.000000 0.000000
vn 0.000000 -1.000000 0.000000
vn 0.000000 -1.000000 0.000000
vn 0.000000 -1.000000 0.000000
vn 1.000000 0.000000 0.000000
vn 1.000000 0.000000 0.000000
vn 1.000000 0.000000 0.000000
vn 1.000000 0.000000 0.000000
vn -1.000000 0.000000 0.000000
vn -1.000000 0.000000 0.000000
vn -1.000000 0.000000 0.000000
vn -1.000000 0.000000 0.000000
vn -0.000000 0.000000 -1.000000
vn 0.000000 0.000000 -1.000000
vn 0.000000 0.000000 -1.000000
vn -0.000000 0.000000 -1.000000
vn 0.000000 0.000000 -1.000000
vn 0.000000 0.000000 -1.000000
vn -0.000000 0.000000 -1.000000
vn -0.000000 0.000000 -1.000000
vn 0.000000 -1.000000 0.000000
vn 0.000000 -1.000000 0.000000
vn 0.000000 -1.000000 0.000000
vn 0.000000 -1.000000 0.000000
vn -1.000000 0.000000 0.000000
vn -1.000000 0.000000 0.000000
vn -1.000000 0.000000 0.000000
vn -1.000000 0.000000 0.000000
vn 0.000000 1.000000 0.000000
vn 0.000000 1.000000 0.000000
vn 0.000000 1.000000 0.000000
vn 0.000000 1.000000 0.000000
vn 1.000000 0.000000 0.000000
vn 1.000000 0.000000 0.000000
vn 1.000000 0.000000 0.000000
vn 1.000000 0.000000 0.000000
vn 0.866026 -0.500000 0.000000
vn 0.500002 -0.866024 0.000000
vn 0.500002 -0.866024 0.000000
vn 0.866026 -0.500000 0.000000
vn 0.000000 -1.000000 0.000000
vn 0.000000 -1.000000 0.000000
vn -0.500002 -0.866024 0.000000
vn -0.500002 -0.866024 0.000000
vn -0.866026 -0.500000 0.000000
vn -0.866026 -0.500000 0.000000
vn -1.000000 0.000000 0.000000
vn -1.000000 0.000000 0.000000
vn -0.866026 0.500000 0.000000
vn -0.866026 0.500000 0.000000
vn -0.500002 0.866024 0.000000
vn -0.500002 0.866024 0.000000
vn 0.000000 1.000000 0.000000
vn 0.000000 1.000000 0.000000
vn 0.500002 0.866024 0.000000
vn 0.500002 0.866024 0.000000
vn 0.866026 0.500000 0.000000
vn 0.866026 0.500000 0.000000
vn 1.000000 0.000000 0.000000
vn 1.000000 0.000000 0.000000
vn 0.000001 0.000000 -1.000000
vn 0.000001 0.000000 -1.000000
vn -0.000000 0.000000 -1.000000
vn 0.000000 0.000000 -1.000000
vn 0.000000 0.000000 -1.000000
vn 0.000000 0.000000 -1.000000
vn 0.000000 0.000000 -1.000000
vn -0.000001 0.000000 -1.000000
vn -0.000001 0.000000 -1.000000
vn 0.000000 0.000000 -1.000000
vn 0.000000 0.000000 -1.000000
vn 0.000000 0.000000 -1.000000
vn 0.000000 0.000000 -1.000000
vn 0.000000 1.000000 0.000000
vn 0.000000 1.000000 0.000000
vn 0.000000 1.000000 0.000000
vn 0.000000 1.000000 0.000000
vn -0.000000 0.000000 -1.000000
vn 0.000000 0.000000 -1.000000
vn 0.000000 0.000000 -1.000000
vn -0.000000 0.000000 -1.000000
vn 0.000000 -1.000000 0.000000
vn 0.000000 -1.000000 0.000000
vn 0.000000 -1.000000 0.000000
vn 0.000000 -1.000000 0.000000
vn 1.000000 0.000000 0.000000
vn 1.000000 0.000000 0.000000
vn 1.000000 0.000000 0.000000
vn 1.000000 0.000000 0.000000
vn -1.000000 0.000000 0.000000
vn -1.000000 0.000000 0.000000
vn -1.000000 0.000000 0.000000
vn -1.000000 0.000000 0.000000
vn -0.000000 0.000000 -1.000000
vn 0.000000 0.000000 -1.000000
vn 0.000000 0.000000 -1.000000
vn -0.000000 0.000000 -1.000000
vn 0.866026 -0.499999 0.000000
vn 0.500003 -0.866024 0.000000
vn 0.500003 -0.866024 0.000000
vn 0.866026 -0.499999 0.000000
vn 0.000000 -1.000000 0.000000
vn 0.000000 -1.000000 0.000000
vn -0.500003 -0.866024 0.000000
vn -0.500003 -0.866024 0.000000
vn -0.866027 -0.499998 0.000000
vn -0.866027 -0.499998 0.000000
vn -1.000000 0.000000 0.000000
vn -1.000000 0.000000 0.000000
vn -0.866027 0.499998 0.000000
vn -0.866027 0.499998 0.000000
vn -0.500003 0.866024 0.000000
vn -0.500003 0.866024 0.000000
vn 0.000000 1.000000 0.000000
vn 0.000000 1.000000 0.000000
vn 0.500003 0.866024 0.000000
vn 0.500003 0.866024 0.000000
vn 0.866026 0.499999 0.000000
vn 0.866026 0.499999 0.000000
vn 1.000000 0.000000 0.000000
vn 1.000000 0.000000 0.000000
vn 0.000001 0.000000 -1.000000
vn 0.000001 0.000000 -1.000000
vn -0.000000 0.000000 -1.000000
vn 0.000000 0.000000 -1.000000
vn 0.000000 0.000000 -1.000000
vn 0.000000 0.000000 -1.000000
vn 0.000000 0.000000 -1.000000
vn -0.000001 0.000000 -1.000000
vn -0.000001 0.000000 -1.000000
vn 0.000000 0.000000 -1.000000
vn 0.000000 0.000000 -1.000000
vn 0.000000 0.000000 -1.000000
vn 0.000000 0.000000 -1.000000
vn 0.866027 -0.499998 0.000000
vn 0.500003 -0.866024 0.000000
vn 0.500003 -0.866024 0.000000
vn 0.866027 -0.499998 0.000000
vn 0.000000 -1.000000 0.000000
vn 0.000000 -1.000000 0.000000
vn -0.500002 -0.866024 0.000000
vn -0.500002 -0.866024 0.000000
vn -0.866027 -0.499998 0.000000
vn -0.866027 -0.499998 0.000000
vn -1.000000 0.000000 0.000000
vn -1.000000 0.000000 0.000000
vn -0.866027 0.499998 0.000000
vn -0.866027 0.499998 0.000000
vn -0.500002 0.866024 0.000000
vn -0.500002 0.866024 0.000000
vn 0.000000 1.000000 0.000000
vn 0.000000 1.000000 0.000000
vn 0.500003 0.866024 0.000000
vn 0.500003 0.866024 0.000000
vn 0.866027 0.499998 0.000000
vn 0.866027 0.499998 0.000000
vn 1.000000 0.000000 0.000000
vn 1.000000 0.000000 0.000000
vn 0.000001 0.000000 -1.000000
vn 0.000001 0.000000 -1.000000
vn -0.000000 0.000000 -1.000000
vn 0.000000 0.000000 -1.000000
vn 0.000000 0.000000 -1.000000
vn 0.000000 0.000000 -1.000000
vn 0.000000 0.000000 -1.000000
vn -0.000001 0.000000 -1.000000
vn -0.000001 0.000000 -1.000000
vn 0.000000 0.000000 -1.000000
vn 0.000000 0.000000 -1.000000
vn 0.000000 0.000000 -1.000000
vn 0.000000 0.000000 -1.000000
vn 0.866027 -0.499998 0.000000
vn 0.500003 -0.866024 0.000000
vn 0.500003 -0.866024 0.000000
vn 0.866027 -0.499998 0.000000
vn 0.000000 -1.000000 0.000000
vn 0.000000 -1.000000 0.000000
vn -0.500002 -0.866024 0.000000
vn -0.500002 -0.866024 0.000000
vn -0.866027 -0.499998 0.000000
vn -0.866027 -0.499998 0.000000
vn -1.000000 0.000000 0.000000
vn -1.000000 0.000000 0.000000
vn -0.866027 0.499998 0.000000
vn -0.866027 0.499998 0.000000
vn -0.500002 0.866024 0.000000
vn -0.500002 0.866024 0.000000
vn 0.000000 1.000000 0.000000
vn 0.000000 1.000000 0.000000
vn 0.500003 0.866024 0.000000
vn 0.500003 0.866024 0.000000
vn 0.866027 0.499998 0.000000
vn 0.866027 0.499998 0.000000
vn 1.000000 0.000000 0.000000
vn 1.000000 0.000000 0.000000
vn 0.000001 0.000000 -1.000000
vn 0.000001 0.000000 -1.000000
vn 0.000000 0.000000 -1.000000
vn 0.000000 0.000000 -1.000000
vn 0.000000 0.000000 -1.000000
vn 0.000000 0.000000 -1.000000
vn 0.000000 0.000000 -1.000000
vn -0.000001 0.000000 -1.000000
vn -0.000001 0.000000 -1.000000
vn 0.000000 0.000000 -1.000000
vn 0.000000 0.000000 -1.000000
vn 0.000000 0.000000 -1.000000
vn 0.000000 0.000000 -1.000000
vn 0.866026 -0.499999 0.000000
vn 0.500003 -0.866024 0.000000
vn 0.500003 -0.866024 0.000000
vn 0.866026 -0.499999 0.000000
vn 0.000000 -1.000000 0.000000
vn 0.000000 -1.000000 0.000000
vn -0.500003 -0.866024 0.000000
vn -0.500003 -0.866024 0.000000
vn -0.866027 -0.499998 0.000000
vn -0.866027 -0.499998 0.000000
vn -1.000000 0.000000 0.000000
vn -1.000000 0.000000 0.000000
vn -0.866027 0.499998 0.000000
vn -0.866027 0.499998 0.000000
vn -0.500003 0.866024 0.000000
vn -0.500003 0.866024 0.000000
vn 0.000000 1.000000 0.000000
vn 0.000000 1.000000 0.000000
vn 0.500003 0.866024 0.000000
vn 0.500003 0.866024 0.000000
vn 0.866026 0.499999 0.000000
vn 0.866026 0.499999 0.000000
vn 1.000000 0.000000 0.000000
vn 1.000000 0.000000 0.000000
vn 0.000001 0.000000 -1.000000
vn 0.000001 0.000000 -1.000000
vn 0.000000 0.000000 -1.000000
vn 0.000000 0.000000 -1.000000
vn 0.000000 0.000000 -1.000000
vn 0.000000 0.000000 -1.000000
vn 0.000000 0.000000 -1.000000
vn -0.000001 0.000000 -1.000000
vn -0.000001 0.000000 -1.000000
vn 0.000000 0.000000 -1.000000
vn 0.000000 0.000000 -1.000000
vn 0.000000 0.000000 -1.000000
vn 0.000000 0.000000 -1.000000
vn 0.866027 -0.499998 0.000000
vn 0.500003 -0.866024 0.000000
vn 0.500003 -0.866024 0.000000
vn 0.866027 -0.499998 0.000000
vn 0.000000 -1.000000 0.000000
vn 0.000000 -1.000000 0.000000
vn -0.500002 -0.866024 0.000000
vn -0.500002 -0.866024 0.000000
vn -0.866027 -0.499998 0.000000
vn -0.866027 -0.499998 0.000000
vn -1.000000 0.000000 0.000000
vn -1.000000 0.000000 0.000000
vn -0.866027 0.499998 0.000000
vn -0.866027 0.499998 0.000000
vn -0.500002 0.866024 0.000000
vn -0.500002 0.866024 0.000000
vn 0.000000 1.000000 0.000000
vn 0.000000 1.000000 0.000000
vn 0.500003 0.866024 0.000000
vn 0.500003 0.866024 0.000000
vn 0.866027 0.499998 0.000000
vn 0.866027 0.499998 0.000000
vn 1.000000 0.000000 0.000000
vn 1.000000 0.000000 0.000000
vn 0.000001 0.000000 -1.000000
vn 0.000001 0.000000 -1.000000
vn 0.000000 0.000000 -1.000000
vn 0.000000 0.000000 -1.000000
vn 0.000000 0.000000 -1.000000
vn 0.000000 0.000000 -1.000000
vn 0.000000 0.000000 -1.000000
vn -0.000001 0.000000 -1.000000
vn -0.000001 0.000000 -1.000000
vn 0.000000 0.000000 -1.000000
vn 0.000000 0.000000 -1.000000
vn 0.000000 0.000000 -1.000000
vn 0.000000 0.000000 -1.000000
vn 0.866026 -0.500000 0.000000
vn 0.500002 -0.866024 0.000000
vn 0.500002 -0.866024 0.000000
vn 0.866026 -0.500000 0.000000
vn 0.000000 -1.000000 0.000000
vn 0.000000 -1.000000 0.000000
vn -0.500002 -0.866024 0.000000
vn -0.500002 -0.866024 0.000000
vn -0.866026 -0.500000 0.000000
vn -0.866026 -0.500000 0.000000
vn -1.000000 0.000000 0.000000
vn -1.000000 0.000000 0.000000
vn -0.866026 0.500000 0.000000
vn -0.866026 0.500000 0.000000
vn -0.500002 0.866024 0.000000
vn -0.500002 0.866024 0.000000
vn 0.000000 1.000000 0.000000
vn 0.000000 1.000000 0.000000
vn 0.500002 0.866024 0.000000
vn 0.500002 0.866024 0.000000
vn 0.866026 0.500000 0.000000
vn 0.866026 0.500000 0.000000
vn 1.000000 0.000000 0.000000
vn 1.000000 0.000000 0.000000
vn 0.000001 0.000000 -1.000000
vn 0.000001 0.000000 -1.000000
vn 0.000000 0.000000 -1.000000
vn 0.000000 0.000000 -1.000000
vn 0.000000 0.000000 -1.000000
vn 0.000000 0.000000 -1.000000
vn 0.000000 0.000000 -1.000000
vn -0.000001 0.000000 -1.000000
vn -0.000001 0.000000 -1.000000
vn 0.000000 0.000000 -1.000000
vn 0.000000 0.000000 -1.000000
vn 0.000000 0.000000 -1.000000
vn 0.000000 0.000000 -1.000000
vn 0.866026 -0.500000 0.000000
vn 0.500002 -0.866024 0.000000
vn 0.500002 -0.866024 0.000000
vn 0.866026 -0.500000 0.000000
vn 0.000000 -1.000000 0.000000
vn 0.000000 -1.000000 0.000000
vn -0.500002 -0.866024 0.000000
vn -0.500002 -0.866024 0.000000
vn -0.866026 -0.500000 0.000000
vn -0.866026 -0.500000 0.000000
vn -1.000000 0.000000 0.000000
vn -1.000000 0.000000 0.000000
vn -0.866026 0.500000 0.000000
vn -0.866026 0.500000 0.000000
vn -0.500002 0.866024 0.000000
vn -0.500002 0.866024 0.000000
vn 0.000000 1.000000 0.000000
vn 0.000000 1.000000 0.000000
vn 0.500002 0.866024 0.000000
vn 0.500002 0.866024 0.000000
vn 0.866026 0.500000 0.000000
vn 0.866026 0.500000 0.000000
vn 1.000000 0.000000 0.000000
vn 1.000000 0.000000 0.000000
vn 0.000001 0.000000 -1.000000
vn 0.000001 0.000000 -1.000000
vn -0.000000 0.000000 -1.000000
vn 0.000000 0.000000 -1.000000
vn 0.000000 0.000000 -1.000000
vn 0.000000 0.000000 -1.000000
vn 0.000000 0.000000 -1.000000
vn -0.000001 0.000000 -1.000000
vn -0.000001 0.000000 -1.000000
vn 0.000000 0.000000 -1.000000
vn 0.000000 0.000000 -1.000000
vn 0.000000 0.000000 -1.000000
vn 0.000000 0.000000 -1.000000
vn 0.866027 -0.499998 0.000000
vn 0.500003 -0.866024 0.000000
vn 0.500003 -0.866024 0.000000
vn 0.866027 -0.499998 0.000000
vn 0.000000 -1.000000 0.000000
vn 0.000000 -1.000000 0.000000
vn -0.500002 -0.866024 0.000000
vn -0.500002 -0.866024 0.000000
vn -0.866027 -0.499998 0.000000
vn -0.866027 -0.499998 0.000000
vn -1.000000 0.000000 0.000000
vn -1.000000 0.000000 0.000000
vn -0.866027 0.499998 0.000000
vn -0.866027 0.499998 0.000000
vn -0.500002 0.866024 0.000000
vn -0.500002 0.866024 0.000000
vn 0.000000 1.000000 0.000000
vn 0.000000 1.000000 0.000000
vn 0.500003 0.866024 0.000000
vn 0.500003 0.866024 0.000000
vn 0.866027 0.499998 0.000000
vn 0.866027 0.499998 0.000000
vn 1.000000 0.000000 0.000000
vn 1.000000 0.000000 0.000000
vn 0.000001 0.000000 -1.000000
vn 0.000001 0.000000 -1.000000
vn 0.000000 0.000000 -1.000000
vn 0.000000 0.000000 -1.000000
vn 0.000000 0.000000 -1.000000
vn 0.000000 0.000000 -1.000000
vn 0.000000 0.000000 -1.000000
vn -0.000001 0.000000 -1.000000
vn -0.000001 0.000000 -1.000000
vn 0.000000 0.000000 -1.000000
vn 0.000000 0.000000 -1.000000
vn 0.000000 0.000000 -1.000000
vn 0.000000 0.000000 -1.000000
vn 0.866026 -0.500000 0.000000
vn 0.500002 -0.866024 0.000000
vn 0.500002 -0.866024 0.000000
vn 0.866026 -0.500000 0.000000
vn 0.000000 -1.000000 0.000000
vn 0.000000 -1.000000 0.000000
vn -0.500002 -0.866024 0.000000
vn -0.500002 -0.866024 0.000000
vn -0.866026 -0.500000 0.000000
vn -0.866026 -0.500000 0.000000
vn -1.000000 0.000000 0.000000
vn -1.000000 0.000000 0.000000
vn -0.866026 0.500000 0.000000
vn -0.866026 0.500000 0.000000
vn -0.500002 0.866024 0.000000
vn -0.500002 0.866024 0.000000
vn 0.000000 1.000000 0.000000
vn 0.000000 1.000000 0.000000
vn 0.500002 0.866024 0.000000
vn 0.500002 0.866024 0.000000
vn 0.866026 0.500000 0.000000
vn 0.866026 0.500000 0.000000
vn 1.000000 0.000000 0.000000
vn 1.000000 0.000000 0.000000
vn 0.000001 0.000000 -1.000000
vn 0.000001 0.000000 -1.000000
vn 0.000000 0.000000 -1.000000
vn 0.000000 0.000000 -1.000000
vn 0.000000 0.000000 -1.000000
vn 0.000000 0.000000 -1.000000
vn 0.000000 0.000000 -1.000000
vn -0.000001 0.000000 -1.000000
vn -0.000001 0.000000 -1.000000
vn 0.000000 0.000000 -1.000000
vn 0.000000 0.000000 -1.000000
vn 0.000000 0.000000 -1.000000
vn 0.000000 0.000000 -1.000000
vn 0.866026 -0.499999 0.000000
vn 0.500003 -0.866024 0.000000
vn 0.500003 -0.866024 0.000000
vn 0.866026 -0.499999 0.000000
vn 0.000000 -1.000000 0.000000
vn 0.000000 -1.000000 0.000000
vn -0.500003 -0.866024 0.000000
vn -0.500003 -0.866024 0.000000
vn -0.866027 -0.499998 0.000000
vn -0.866027 -0.499998 0.000000
vn -1.000000 0.000000 0.000000
vn -1.000000 0.000000 0.000000
vn -0.866027 0.499998 0.000000
vn -0.866027 0.499998 0.000000
vn -0.500003 0.866024 0.000000
vn -0.500003 0.866024 0.000000
vn 0.000000 1.000000 0.000000
vn 0.000000 1.000000 0.000000
vn 0.500003 0.866024 0.000000
vn 0.500003 0.866024 0.000000
vn 0.866026 0.499999 0.000000
vn 0.866026 0.499999 0.000000
vn 1.000000 0.000000 0.000000
vn 1.000000 0.000000 0.000000
vn 0.000001 0.000000 -1.000000
vn 0.000001 0.000000 -1.000000
vn 0.000000 0.000000 -1.000000
vn 0.000000 0.000000 -1.000000
vn 0.000000 0.000000 -1.000000
vn 0.000000 0.000000 -1.000000
vn 0.000000 0.000000 -1.000000
vn -0.000001 0.000000 -1.000000
vn -0.000001 0.000000 -1.000000
vn 0.000000 0.000000 -1.000000
vn 0.000000 0.000000 -1.000000
vn 0.000000 0.000000 -1.000000
vn 0.000000 0.000000 -1.000000
vn 0.866026 -0.499999 0.000000
vn 0.500003 -0.866024 0.000000
vn 0.500003 -0.866024 0.000000
vn 0.866026 -0.499999 0.000000
vn 0.000000 -1.000000 0.000000
vn 0.000000 -1.000000 0.000000
vn -0.500003 -0.866024 0.000000
vn -0.500003 -0.866024 0.000000
vn -0.866027 -0.499998 0.000000
vn -0.866027 -0.499998 0.000000
vn -1.000000 0.000000 0.000000
vn -1.000000 0.000000 0.000000
vn -0.866027 0.499998 0.000000
vn -0.866027 0.499998 0.000000
vn -0.500003 0.866024 0.000000
vn -0.500003 0.866024 0.000000
vn 0.000000 1.000000 0.000000
vn 0.000000 1.000000 0.000000
vn 0.500003 0.866024 0.000000
vn 0.500003 0.866024 0.000000
vn 0.866026 0.499999 0.000000
vn 0.866026 0.499999 0.000000
vn 1.000000 0.000000 0.000000
vn 1.000000 0.000000 0.000000
vn 0.000001 0.000000 -1.000000
vn 0.000001 0.000000 -1.000000
vn 0.000000 0.000000 -1.000000
vn 0.000000 0.000000 -1.000000
vn 0.000000 0.000000 -1.000000
vn 0.000000 0.000000 -1.000000
vn 0.000000 0.000000 -1.000000
vn -0.000001 0.000000 -1.000000
vn -0.000001 0.000000 -1.000000
vn 0.000000 0.000000 -1.000000
vn 0.000000 0.000000 -1.000000
vn 0.000000 0.000000 -1.000000
vn 0.000000 0.000000 -1.000000
s off
g pCube4
f 3/16/1 4/2/2 6/3/3 5/4/4
s 1
f 9/5/5 10/6/6 11/7/7 12/8/8
s off
f 7/9/9 8/10/10 2/13/11 1/12/12
f 2/11/13 8/10/14 6/3/15 4/15/16
f 7/9/17 1/14/18 3/1/19 5/4/20
s 1
f 5/4/21 6/3/22 10/6/6 9/5/5
f 6/3/22 8/10/23 11/7/7 10/6/6
f 8/10/23 7/9/24 12/8/8 11/7/7
f 7/9/24 5/4/21 9/5/5 12/8/8
s off
f 65/17/25 66/18/26 27/19/27 15/20/28
f 38/21/29 39/22/30 28/23/31 17/24/32
f 17/25/33 28/26/34 61/27/35 62/28/36
f 45/29/37 46/30/38 47/31/39 48/32/40
f 70/33/41 71/34/42 18/35/43 41/36/44
f 62/37/45 63/38/46 38/39/47 17/40/48
f 49/41/49 50/42/50 51/43/51 52/44/52
f 23/45/53 67/46/54 68/47/55 16/48/56
f 24/49/57 40/50/58 41/51/59 18/52/60
f 72/53/61 24/54/62 18/55/63 71/56/64
f 25/57/65 21/58/66 43/59/67 44/60/68
f 27/19/69 66/18/70 67/46/71 23/45/72
f 28/23/73 39/22/74 40/50/75 24/49/76
f 72/53/77 61/27/78 28/26/79 24/54/80
f 64/61/81 65/62/82 15/63/83 30/64/84
f 15/65/85 27/66/86 31/67/87 30/68/88
f 32/69/89 31/67/90 27/66/91 23/70/92
f 33/71/93 32/69/94 23/70/95 16/72/96
f 68/73/97 69/74/98 33/75/99 16/76/100
f 54/77/101 53/78/102 55/79/103 56/80/104
f 36/81/105 35/82/106 22/83/107 26/84/108
f 58/85/109 57/86/110 59/87/111 60/88/112
f 63/38/113 64/61/114 30/64/115 38/39/116
f 30/68/117 31/67/118 39/22/119 38/21/120
f 40/50/121 39/22/122 31/67/123 32/69/124
f 41/51/125 40/50/126 32/69/127 33/71/128
f 69/74/129 70/33/130 41/36/131 33/75/132
f 43/59/133 42/89/134 34/90/135 35/82/136
f 44/60/137 43/59/138 35/82/139 36/81/140
f 37/91/141 44/60/142 36/81/143 29/92/144
f 19/93/145 25/94/146 46/95/147 45/96/148
f 25/97/149 44/98/150 47/99/151 46/100/152
f 44/101/153 37/102/154 48/103/155 47/104/156
f 37/105/157 19/106/158 45/107/159 48/108/160
f 21/109/161 20/110/162 50/111/163 49/112/164
f 20/113/165 42/114/166 51/115/167 50/116/168
f 42/117/169 43/118/170 52/119/171 51/120/172
f 43/121/173 21/122/174 49/123/175 52/124/176
f 35/125/177 34/126/178 53/127/179 54/128/180
f 34/129/181 14/130/182 55/131/183 53/132/184
f 14/133/185 22/134/186 56/135/187 55/136/188
f 22/137/189 35/138/190 54/139/191 56/140/192
f 29/141/193 36/142/194 57/143/195 58/144/196
f 36/145/197 26/146/198 59/147/199 57/148/200
f 26/149/201 13/150/202 60/151/203 59/152/204
f 13/153/205 29/154/206 58/155/207 60/156/208
f 77/157/209 78/158/210 25/94/211 19/93/212
f 19/106/213 37/105/214 76/159/215 77/160/216
f 37/105/217 29/154/218 75/161/219 76/159/220
f 29/154/221 13/153/222 74/162/223 75/161/224
f 13/150/225 26/149/226 73/163/227 74/164/228
f 84/165/229 73/163/230 26/149/231 22/134/232
f 83/166/233 84/165/234 22/134/235 14/133/236
f 14/130/237 34/129/238 82/167/239 83/168/240
f 34/129/241 42/114/242 81/169/243 82/167/244
f 42/114/245 20/113/246 80/170/247 81/169/248
f 21/109/249 79/171/250 80/172/251 20/110/252
f 25/94/253 78/158/254 79/171/255 21/109/256
f 74/164/257 73/163/258 66/18/259 65/17/260
f 75/161/261 74/162/262 65/62/263 64/61/264
f 76/159/265 75/161/266 64/61/267 63/38/268
f 77/160/269 76/159/270 63/38/271 62/37/272
f 62/28/273 61/27/274 78/158/275 77/157/276
f 79/171/277 78/158/278 61/27/279 72/53/280
f 80/172/281 79/171/282 72/53/283 71/56/284
f 81/169/285 80/170/286 71/34/287 70/33/288
f 82/167/289 81/169/290 70/33/291 69/74/292
f 83/168/293 82/167/294 69/74/295 68/73/296
f 68/47/297 67/46/298 84/165/299 83/166/300
f 67/46/301 66/18/302 73/163/303 84/165/304
f 137/173/305 138/174/306 99/175/307 87/176/308
f 110/177/309 111/178/310 100/179/311 89/180/312
f 89/181/313 100/182/314 133/183/315 134/184/316
f 117/185/317 118/186/318 119/187/319 120/188/320
f 142/189/321 143/190/322 90/191/323 113/192/324
f 134/193/325 135/194/326 110/195/327 89/196/328
f 121/197/329 122/198/330 123/199/331 124/200/332
f 95/201/333 139/202/334 140/203/335 88/204/336
f 96/205/337 112/206/338 113/207/339 90/208/340
f 144/209/341 96/210/342 90/211/343 143/212/344
f 97/213/345 93/214/346 115/215/347 116/216/348
f 99/175/349 138/174/350 139/202/351 95/201/352
f 100/179/353 111/178/354 112/206/355 96/205/356
f 144/209/357 133/183/358 100/182/359 96/210/360
f 136/217/361 137/218/362 87/219/363 102/220/364
f 87/221/365 99/222/366 103/223/367 102/224/368
f 104/225/369 103/223/370 99/222/371 95/226/372
f 105/227/373 104/225/374 95/226/375 88/228/376
f 140/229/377 141/230/378 105/231/379 88/232/380
f 126/233/381 125/234/382 127/235/383 128/236/384
f 108/237/385 107/238/386 94/239/387 98/240/388
f 130/241/389 129/242/390 131/243/391 132/244/392
f 135/194/393 136/217/394 102/220/395 110/195/396
f 102/224/397 103/223/398 111/178/399 110/177/400
f 112/206/401 111/178/402 103/223/403 104/225/404
f 113/207/405 112/206/406 104/225/407 105/227/408
f 141/230/409 142/189/410 113/192/411 105/231/412
f 115/215/413 114/245/414 106/246/415 107/238/416
f 116/216/417 115/215/418 107/238/419 108/237/420
f 109/247/421 116/216/422 108/237/423 101/248/424
f 91/249/425 97/250/426 118/251/427 117/252/428
f 97/253/429 116/254/430 119/255/431 118/256/432
f 116/257/433 109/258/434 120/259/435 119/260/436
f 109/261/437 91/262/438 117/263/439 120/264/440
f 93/265/441 92/266/442 122/267/443 121/268/444
f 92/269/445 114/270/446 123/271/447 122/272/448
f 114/273/449 115/274/450 124/275/451 123/276/452
f 115/277/453 93/278/454 121/279/455 124/280/456
f 107/281/457 106/282/458 125/283/459 126/284/460
f 106/285/461 86/286/462 127/287/463 125/288/464
f 86/289/465 94/290/466 128/291/467 127/292/468
f 94/293/469 107/294/470 126/295/471 128/296/472
f 101/297/473 108/298/474 129/299/475 130/300/476
f 108/301/477 98/302/478 131/303/479 129/304/480
f 98/305/481 85/306/482 132/307/483 131/308/484
f 85/309/485 101/310/486 130/311/487 132/312/488
f 149/313/489 150/314/490 97/250/491 91/249/492
f 91/262/493 109/261/494 148/315/495 149/316/496
f 109/261/497 101/310/498 147/317/499 148/315/500
f 101/310/501 85/309/502 146/318/503 147/317/504
f 85/306/505 98/305/506 145/319/507 146/320/508
f 156/321/509 145/319/510 98/305/511 94/290/512
f 155/322/513 156/321/514 94/290/515 86/289/516
f 86/286/517 106/285/518 154/323/519 155/324/520
f 106/285/521 114/270/522 153/325/523 154/323/524
f 114/270/525 92/269/526 152/326/527 153/325/528
f 93/265/529 151/327/530 152/328/531 92/266/532
f 97/250/533 150/314/534 151/327/535 93/265/536
f 146/320/537 145/319/538 138/174/539 137/173/540
f 147/317/541 146/318/542 137/218/543 136/217/544
f 148/315/545 147/317/546 136/217/547 135/194/548
f 149/316/549 148/315/550 135/194/551 134/193/552
f 134/184/553 133/183/554 150/314/555 149/313/556
f 151/327/557 150/314/558 133/183/559 144/209/560
f 152/328/561 151/327/562 144/209/563 143/212/564
f 153/325/565 152/326/566 143/190/567 142/189/568
f 154/323/569 153/325/570 142/189/571 141/230/572
f 155/324/573 154/323/574 141/230/575 140/229/576
f 140/203/577 139/202/578 156/321/579 155/322/580
f 139/202/581 138/174/582 145/319/583 156/321/584
f 159/329/585 160/330/586 162/331/587 161/332/588
f 169/333/589 170/334/590 171/335/591 172/336/592
f 163/337/593 164/338/594 158/339/595 157/340/596
f 158/341/597 164/342/598 162/343/599 160/344/600
f 163/345/601 157/346/602 159/347/603 161/348/604
s 2
f 161/332/605 162/331/606 166/349/607 165/350/608
f 162/343/606 164/342/609 167/351/610 166/352/607
f 164/338/609 163/337/611 168/353/612 167/354/610
f 163/345/611 161/348/605 165/355/608 168/356/612
s off
f 165/350/613 166/349/614 170/334/615 169/333/616
f 166/352/617 167/351/618 171/335/619 170/334/620
f 167/354/621 168/353/622 172/336/623 171/335/624
f 168/356/625 165/355/626 169/333/627 172/336/628
s 3
f 173/357/629 174/358/630 186/359/631 185/360/632
f 174/358/630 175/361/633 187/362/634 186/359/631
f 175/361/633 176/363/635 188/364/636 187/362/634
f 176/363/635 177/365/637 189/366/638 188/364/636
f 177/365/637 178/367/639 190/368/640 189/366/638
f 178/367/639 179/369/641 191/370/642 190/368/640
f 179/369/641 180/371/643 192/372/644 191/370/642
f 180/371/643 181/373/645 193/374/646 192/372/644
f 181/373/645 182/375/647 194/376/648 193/374/646
f 182/375/647 183/377/649 195/378/650 194/376/648
f 183/377/649 184/379/651 196/380/652 195/378/650
f 184/379/651 173/381/629 185/382/632 196/380/652
s 4
f 185/383/653 186/384/654 197/385/655
f 186/384/654 187/386/656 197/385/655
f 187/386/656 188/387/657 197/385/655
f 188/387/657 189/388/658 197/385/655
f 189/388/658 190/389/659 197/385/655
f 190/389/659 191/390/660 197/385/655
f 191/390/660 192/391/661 197/385/655
f 192/391/661 193/392/662 197/385/655
f 193/392/662 194/393/663 197/385/655
f 194/393/663 195/394/664 197/385/655
f 195/394/664 196/395/665 197/385/655
f 196/395/665 185/383/653 197/385/655
s off
f 200/396/666 201/397/667 203/398/668 202/399/669
s 5
f 206/400/670 207/401/671 208/402/672 209/403/673
s off
f 204/404/674 205/405/675 199/406/676 198/407/677
f 199/408/678 205/405/679 203/398/680 201/409/681
f 204/404/682 198/410/683 200/411/684 202/399/685
s 5
f 202/399/686 203/398/687 207/401/671 206/400/670
f 203/398/687 205/405/688 208/402/672 207/401/671
f 205/405/688 204/404/689 209/403/673 208/402/672
f 204/404/689 202/399/686 206/400/670 209/403/673
s 6
f 210/412/690 211/413/691 223/414/692 222/415/693
f 211/413/691 212/416/694 224/417/695 223/414/692
f 212/416/694 213/418/696 225/419/697 224/417/695
f 213/418/696 214/420/698 226/421/699 225/419/697
f 214/420/698 215/422/700 227/423/701 226/421/699
f 215/422/700 216/424/702 228/425/703 227/423/701
f 216/424/702 217/426/704 229/427/705 228/425/703
f 217/426/704 218/428/706 230/429/707 229/427/705
f 218/428/706 219/430/708 231/431/709 230/429/707
f 219/430/708 220/432/710 232/433/711 231/431/709
f 220/432/710 221/434/712 233/435/713 232/433/711
f 221/434/712 210/436/690 222/437/693 233/435/713
s 7
f 222/438/714 223/439/715 234/440/716
f 223/439/715 224/441/717 234/440/716
f 224/441/717 225/442/718 234/440/716
f 225/442/718 226/443/719 234/440/716
f 226/443/719 227/444/720 234/440/716
f 227/444/720 228/445/721 234/440/716
f 228/445/721 229/446/722 234/440/716
f 229/446/722 230/447/723 234/440/716
f 230/447/723 231/448/724 234/440/716
f 231/448/724 232/449/725 234/440/716
f 232/449/725 233/450/726 234/440/716
f 233/450/726 222/438/714 234/440/716
s 8
f 235/451/727 236/452/728 248/453/729 247/454/730
f 236/452/728 237/455/731 249/456/732 248/453/729
f 237/455/731 238/457/733 250/458/734 249/456/732
f 238/457/733 239/459/735 251/460/736 250/458/734
f 239/459/735 240/461/737 252/462/738 251/460/736
f 240/461/737 241/463/739 253/464/740 252/462/738
f 241/463/739 242/465/741 254/466/742 253/464/740
f 242/465/741 243/467/743 255/468/744 254/466/742
f 243/467/743 244/469/745 256/470/746 255/468/744
f 244/469/745 245/471/747 257/472/748 256/470/746
f 245/471/747 246/473/749 258/474/750 257/472/748
f 246/473/749 235/475/727 247/476/730 258/474/750
s 9
f 247/477/751 248/478/752 259/479/753
f 248/478/752 249/480/754 259/479/753
f 249/480/754 250/481/755 259/479/753
f 250/481/755 251/482/756 259/479/753
f 251/482/756 252/483/757 259/479/753
f 252/483/757 253/484/758 259/479/753
f 253/484/758 254/485/759 259/479/753
f 254/485/759 255/486/760 259/479/753
f 255/486/760 256/487/761 259/479/753
f 256/487/761 257/488/762 259/479/753
f 257/488/762 258/489/763 259/479/753
f 258/489/763 247/477/751 259/479/753
s 10
f 260/490/764 261/491/765 273/492/766 272/493/767
f 261/491/765 262/494/768 274/495/769 273/492/766
f 262/494/768 263/496/770 275/497/771 274/495/769
f 263/496/770 264/498/772 276/499/773 275/497/771
f 264/498/772 265/500/774 277/501/775 276/499/773
f 265/500/774 266/502/776 278/503/777 277/501/775
f 266/502/776 267/504/778 279/505/779 278/503/777
f 267/504/778 268/506/780 280/507/781 279/505/779
f 268/506/780 269/508/782 281/509/783 280/507/781
f 269/508/782 270/510/784 282/511/785 281/509/783
f 270/510/784 271/512/786 283/513/787 282/511/785
f 271/512/786 260/514/764 272/515/767 283/513/787
s 11
f 272/516/788 273/517/789 284/518/790
f 273/517/789 274/519/791 284/518/790
f 274/519/791 275/520/792 284/518/790
f 275/520/792 276/521/793 284/518/790
f 276/521/793 277/522/794 284/518/790
f 277/522/794 278/523/795 284/518/790
f 278/523/795 279/524/796 284/518/790
f 279/524/796 280/525/797 284/518/790
f 280/525/797 281/526/798 284/518/790
f 281/526/798 282/527/799 284/518/790
f 282/527/799 283/528/800 284/518/790
f 283/528/800 272/516/788 284/518/790
s 12
f 285/529/801 286/530/802 298/531/803 297/532/804
f 286/530/802 287/533/805 299/534/806 298/531/803
f 287/533/805 288/535/807 300/536/808 299/534/806
f 288/535/807 289/537/809 301/538/810 300/536/808
f 289/537/809 290/539/811 302/540/812 301/538/810
f 290/539/811 291/541/813 303/542/814 302/540/812
f 291/541/813 292/543/815 304/544/816 303/542/814
f 292/543/815 293/545/817 305/546/818 304/544/816
f 293/545/817 294/547/819 306/548/820 305/546/818
f 294/547/819 295/549/821 307/550/822 306/548/820
f 295/549/821 296/551/823 308/552/824 307/550/822
f 296/551/823 285/553/801 297/554/804 308/552/824
s 13
f 297/555/825 298/556/826 309/557/827
f 298/556/826 299/558/828 309/557/827
f 299/558/828 300/559/829 309/557/827
f 300/559/829 301/560/830 309/557/827
f 301/560/830 302/561/831 309/557/827
f 302/561/831 303/562/832 309/557/827
f 303/562/832 304/563/833 309/557/827
f 304/563/833 305/564/834 309/557/827
f 305/564/834 306/565/835 309/557/827
f 306/565/835 307/566/836 309/557/827
f 307/566/836 308/567/837 309/557/827
f 308/567/837 297/555/825 309/557/827
s 14
f 310/568/838 311/569/839 323/570/840 322/571/841
f 311/569/839 312/572/842 324/573/843 323/570/840
f 312/572/842 313/574/844 325/575/845 324/573/843
f 313/574/844 314/576/846 326/577/847 325/575/845
f 314/576/846 315/578/848 327/579/849 326/577/847
f 315/578/848 316/580/850 328/581/851 327/579/849
f 316/580/850 317/582/852 329/583/853 328/581/851
f 317/582/852 318/584/854 330/585/855 329/583/853
f 318/584/854 319/586/856 331/587/857 330/585/855
f 319/586/856 320/588/858 332/589/859 331/587/857
f 320/588/858 321/590/860 333/591/861 332/589/859
f 321/590/860 310/592/838 322/593/841 333/591/861
s 15
f 322/594/862 323/595/863 334/596/864
f 323/595/863 324/597/865 334/596/864
f 324/597/865 325/598/866 334/596/864
f 325/598/866 326/599/867 334/596/864
f 326/599/867 327/600/868 334/596/864
f 327/600/868 328/601/869 334/596/864
f 328/601/869 329/602/870 334/596/864
f 329/602/870 330/603/871 334/596/864
f 330/603/871 331/604/872 334/596/864
f 331/604/872 332/605/873 334/596/864
f 332/605/873 333/606/874 334/596/864
f 333/606/874 322/594/862 334/596/864
s 16
f 335/607/875 336/608/876 348/609/877 347/610/878
f 336/608/876 337/611/879 349/612/880 348/609/877
f 337/611/879 338/613/881 350/614/882 349/612/880
f 338/613/881 339/615/883 351/616/884 350/614/882
f 339/615/883 340/617/885 352/618/886 351/616/884
f 340/617/885 341/619/887 353/620/888 352/618/886
f 341/619/887 342/621/889 354/622/890 353/620/888
f 342/621/889 343/623/891 355/624/892 354/622/890
f 343/623/891 344/625/893 356/626/894 355/624/892
f 344/625/893 345/627/895 357/628/896 356/626/894
f 345/627/895 346/629/897 358/630/898 357/628/896
f 346/629/897 335/631/875 347/632/878 358/630/898
s 17
f 347/633/899 348/634/900 359/635/901
f 348/634/900 349/636/902 359/635/901
f 349/636/902 350/637/903 359/635/901
f 350/637/903 351/638/904 359/635/901
f 351/638/904 352/639/905 359/635/901
f 352/639/905 353/640/906 359/635/901
f 353/640/906 354/641/907 359/635/901
f 354/641/907 355/642/908 359/635/901
f 355/642/908 356/643/909 359/635/901
f 356/643/909 357/644/910 359/635/901
f 357/644/910 358/645/911 359/635/901
f 358/645/911 347/633/899 359/635/901
s 18
f 360/646/912 361/647/913 373/648/914 372/649/915
f 361/647/913 362/650/916 374/651/917 373/648/914
f 362/650/916 363/652/918 375/653/919 374/651/917
f 363/652/918 364/654/920 376/655/921 375/653/919
f 364/654/920 365/656/922 377/657/923 376/655/921
f 365/656/922 366/658/924 378/659/925 377/657/923
f 366/658/924 367/660/926 379/661/927 378/659/925
f 367/660/926 368/662/928 380/663/929 379/661/927
f 368/662/928 369/664/930 381/665/931 380/663/929
f 369/664/930 370/666/932 382/667/933 381/665/931
f 370/666/932 371/668/934 383/669/935 382/667/933
f 371/668/934 360/670/912 372/671/915 383/669/935
s 19
f 372/672/936 373/673/937 384/674/938
f 373/673/937 374/675/939 384/674/938
f 374/675/939 375/676/940 384/674/938
f 375/676/940 376/677/941 384/674/938
f 376/677/941 377/678/942 384/674/938
f 377/678/942 378/679/943 384/674/938
f 378/679/943 379/680/944 384/674/938
f 379/680/944 380/681/945 384/674/938
f 380/681/945 381/682/946 384/674/938
f 381/682/946 382/683/947 384/674/938
f 382/683/947 383/684/948 384/674/938
f 383/684/948 372/672/936 384/674/938
s 20
f 385/685/949 386/686/950 398/687/951 397/688/952
f 386/686/950 387/689/953 399/690/954 398/687/951
f 387/689/953 388/691/955 400/692/956 399/690/954
f 388/691/955 389/693/957 401/694/958 400/692/956
f 389/693/957 390/695/959 402/696/960 401/694/958
f 390/695/959 391/697/961 403/698/962 402/696/960
f 391/697/961 392/699/963 404/700/964 403/698/962
f 392/699/963 393/701/965 405/702/966 404/700/964
f 393/701/965 394/703/967 406/704/968 405/702/966
f 394/703/967 395/705/969 407/706/970 406/704/968
f 395/705/969 396/707/971 408/708/972 407/706/970
f 396/707/971 385/709/949 397/710/952 408/708/972
s 21
f 397/711/973 398/712/974 409/713/975
f 398/712/974 399/714/976 409/713/975
f 399/714/976 400/715/977 409/713/975
f 400/715/977 401/716/978 409/713/975
f 401/716/978 402/717/979 409/713/975
f 402/717/979 403/718/980 409/713/975
f 403/718/980 404/719/981 409/713/975
f 404/719/981 405/720/982 409/713/975
f 405/720/982 406/721/983 409/713/975
f 406/721/983 407/722/984 409/713/975
f 407/722/984 408/723/985 409/713/975
f 408/723/985 397/711/973 409/713/975
s 22
f 410/724/986 411/725/987 423/726/988 422/727/989
f 411/725/987 412/728/990 424/729/991 423/726/988
f 412/728/990 413/730/992 425/731/993 424/729/991
f 413/730/992 414/732/994 426/733/995 425/731/993
f 414/732/994 415/734/996 427/735/997 426/733/995
f 415/734/996 416/736/998 428/737/999 427/735/997
f 416/736/998 417/738/1000 429/739/1001 428/737/999
f 417/738/1000 418/740/1002 430/741/1003 429/739/1001
f 418/740/1002 419/742/1004 431/743/1005 430/741/1003
f 419/742/1004 420/744/1006 432/745/1007 431/743/1005
f 420/744/1006 421/746/1008 433/747/1009 432/745/1007
f 421/746/1008 410/748/986 422/749/989 433/747/1009
s 23
f 422/750/1010 423/751/1011 434/752/1012
f 423/751/1011 424/753/1013 434/752/1012
f 424/753/1013 425/754/1014 434/752/1012
f 425/754/1014 426/755/1015 434/752/1012
f 426/755/1015 427/756/1016 434/752/1012
f 427/756/1016 428/757/1017 434/752/1012
f 428/757/1017 429/758/1018 434/752/1012
f 429/758/1018 430/759/1019 434/752/1012
f 430/759/1019 431/760/1020 434/752/1012
f 431/760/1020 432/761/1021 434/752/1012
f 432/761/1021 433/762/1022 434/752/1012
f 433/762/1022 422/750/1010 434/752/1012
s 24
f 435/763/1023 436/764/1024 448/765/1025 447/766/1026
f 436/764/1024 437/767/1027 449/768/1028 448/765/1025
f 437/767/1027 438/769/1029 450/770/1030 449/768/1028
f 438/769/1029 439/771/1031 451/772/1032 450/770/1030
f 439/771/1031 440/773/1033 452/774/1034 451/772/1032
f 440/773/1033 441/775/1035 453/776/1036 452/774/1034
f 441/775/1035 442/777/1037 454/778/1038 453/776/1036
f 442/777/1037 443/779/1039 455/780/1040 454/778/1038
f 443/779/1039 444/781/1041 456/782/1042 455/780/1040
f 444/781/1041 445/783/1043 457/784/1044 456/782/1042
f 445/783/1043 446/785/1045 458/786/1046 457/784/1044
f 446/785/1045 435/787/1023 447/788/1026 458/786/1046
s 25
f 447/789/1047 448/790/1048 459/791/1049
f 448/790/1048 449/792/1050 459/791/1049
f 449/792/1050 450/793/1051 459/791/1049
f 450/793/1051 451/794/1052 459/791/1049
f 451/794/1052 452/795/1053 459/791/1049
f 452/795/1053 453/796/1054 459/791/1049
f 453/796/1054 454/797/1055 459/791/1049
f 454/797/1055 455/798/1056 459/791/1049
f 455/798/1056 456/799/1057 459/791/1049
f 456/799/1057 457/800/1058 459/791/1049
f 457/800/1058 458/801/1059 459/791/1049
f 458/801/1059 447/789/1047 459/791/1049
s 26
f 460/802/1060 461/803/1061 473/804/1062 472/805/1063
f 461/803/1061 462/806/1064 474/807/1065 473/804/1062
f 462/806/1064 463/808/1066 475/809/1067 474/807/1065
f 463/808/1066 464/810/1068 476/811/1069 475/809/1067
f 464/810/1068 465/812/1070 477/813/1071 476/811/1069
f 465/812/1070 466/814/1072 478/815/1073 477/813/1071
f 466/814/1072 467/816/1074 479/817/1075 478/815/1073
f 467/816/1074 468/818/1076 480/819/1077 479/817/1075
f 468/818/1076 469/820/1078 481/821/1079 480/819/1077
f 469/820/1078 470/822/1080 482/823/1081 481/821/1079
f 470/822/1080 471/824/1082 483/825/1083 482/823/1081
f 471/824/1082 460/826/1060 472/827/1063 483/825/1083
s 27
f 472/828/1084 473/829/1085 484/830/1086
f 473/829/1085 474/831/1087 484/830/1086
f 474/831/1087 475/832/1088 484/830/1086
f 475/832/1088 476/833/1089 484/830/1086
f 476/833/1089 477/834/1090 484/830/1086
f 477/834/1090 478/835/1091 484/830/1086
f 478/835/1091 479/836/1092 484/830/1086
f 479/836/1092 480/837/1093 484/830/1086
f 480/837/1093 481/838/1094 484/830/1086
f 481/838/1094 482/839/1095 484/830/1086
f 482/839/1095 483/840/1096 484/830/1086
f 483/840/1096 472/828/1084 484/830/1086
